<svg width="1440" height="1440" viewBox="0 0 1440 1440" fill="none" xmlns="http://www.w3.org/2000/svg">
<path d="M827.785 932.505H1158.81C1214.33 932.505 1259.34 887.499 1259.34 831.979V519.009C1259.34 463.489 1214.33 418.483 1158.81 418.483H827.785C772.267 418.483 727.259 463.489 727.259 519.009V831.979C727.259 887.499 772.267 932.505 827.785 932.505Z" fill="#3CA4B1"/>
<path d="M281.191 1069.52H612.214C667.734 1069.52 712.742 1024.51 712.742 968.991V682.688C712.742 627.168 667.734 582.16 612.214 582.16H281.191C225.671 582.16 180.663 627.168 180.663 682.688V968.991C180.663 1024.51 225.671 1069.52 281.191 1069.52Z" fill="#2B56AD"/>
<path d="M531.495 841.12V1065.48C531.495 1121 576.502 1166 632.022 1166H1024.99C1080.51 1166 1125.52 1121 1125.52 1065.48V841.12C1125.52 785.6 1080.51 740.592 1024.99 740.592H632.022C576.502 740.592 531.495 785.6 531.495 841.12Z" fill="#952C99"/>
<path d="M314.481 374.524V625.547C314.481 681.067 359.489 726.075 415.009 726.075H817.312C872.832 726.075 917.839 681.067 917.839 625.547V374.524C917.839 319.004 872.832 273.996 817.312 273.996H415.009C359.489 273.996 314.481 319.004 314.481 374.524Z" fill="#EB144F"/>
<mask id="mask0_3256_2273" style="mask-type:luminance" maskUnits="userSpaceOnUse" x="231" y="325" width="978" height="790">
<path d="M1129.92 1114.87H310.081C266.847 1114.87 231.801 1079.82 231.801 1036.59V403.413C231.801 360.18 266.847 325.133 310.081 325.133H1129.92C1173.15 325.133 1208.2 360.18 1208.2 403.413V1036.59C1208.2 1079.82 1173.15 1114.87 1129.92 1114.87Z" fill="white"/>
</mask>
<g mask="url(#mask0_3256_2273)">
<path d="M1129.92 1114.87H310.081C266.847 1114.87 231.801 1079.82 231.801 1036.59V403.413C231.801 360.18 266.847 325.133 310.081 325.133H1129.92C1173.15 325.133 1208.2 360.18 1208.2 403.413V1036.59C1208.2 1079.82 1173.15 1114.87 1129.92 1114.87Z" fill="url(#paint0_radial_3256_2273)"/>
</g>
<path d="M350.947 450.024H358.655L383.221 486.824L407.785 450.024H415.493V517.459H407.882V462.837L383.317 498.961H382.931L358.366 462.933V517.459H350.947V450.024Z" fill="#211D1D"/>
<path d="M432.643 450.024H481.389V456.96H440.253V479.984H477.053V486.92H440.253V510.521H481.869V517.459H432.643V450.024Z" fill="#211D1D"/>
<path d="M495.263 450.024H502.969L527.535 486.824L552.1 450.024H559.807V517.459H552.196V462.837L527.631 498.961H527.245L502.68 462.933V517.459H495.263V450.024Z" fill="#211D1D"/>
<path d="M607.111 510.619C617.321 510.619 623.679 506.091 623.679 498.576V498.384C623.679 491.063 617.513 486.824 605.761 486.824H584.471V510.619H607.111ZM604.412 480.08C613.564 480.08 619.921 475.939 619.921 468.039V467.847C619.921 461.199 614.623 456.864 604.991 456.864H584.471V480.08H604.412ZM576.956 450.024H605.665C613.372 450.024 619.441 452.24 623.293 455.997C626.087 458.888 627.628 462.452 627.628 466.787V466.979C627.628 475.745 622.233 480.273 616.936 482.585C624.932 484.993 631.387 489.619 631.387 498.865V499.059C631.387 510.619 621.656 517.459 606.917 517.459H576.956V450.024Z" fill="#211D1D"/>
<path d="M672.909 484.415C683.023 484.415 690.249 479.213 690.249 470.544V470.351C690.249 462.067 683.89 457.057 673.005 457.057H652.197V484.415H672.909ZM644.586 450.024H673.583C681.867 450.024 688.514 452.529 692.754 456.768C696.029 460.043 697.955 464.764 697.955 470.063V470.255C697.955 481.429 690.249 487.98 679.653 489.905L700.363 517.459H691.019L671.463 491.255H652.197V517.459H644.586V450.024Z" fill="#211D1D"/>
<path d="M770.209 483.933V483.74C770.209 468.424 759.034 455.901 743.62 455.901C728.208 455.901 717.225 468.232 717.225 483.549V483.74C717.225 499.059 728.399 511.581 743.813 511.581C759.226 511.581 770.209 499.251 770.209 483.933ZM709.326 483.933V483.74C709.326 465.148 723.294 448.868 743.813 448.868C764.333 448.868 778.109 464.957 778.109 483.549V483.74C778.109 502.333 764.14 518.615 743.62 518.615C723.102 518.615 709.326 502.525 709.326 483.933Z" fill="#211D1D"/>
<path d="M492.782 774.392C491.096 772.707 488.352 772.852 485.463 772.852H483.006V782.58H486.28C489.604 782.58 491.337 782.291 492.831 780.797C493.649 779.979 494.083 778.679 494.083 777.571C494.083 776.464 493.746 775.356 492.782 774.392ZM492.059 760.764C490.567 759.127 487.918 759.271 485.607 759.271H483.006V768.613H485.317C487.629 768.613 490.277 768.517 491.867 767.072C492.685 766.301 493.167 765.243 493.167 763.845C493.167 762.595 492.733 761.535 492.059 760.764ZM497.308 783.928C494.227 787.011 490.181 787.011 485.028 787.011H477.66V754.889H487.34C490.808 754.889 493.841 755.081 496.153 757.393C497.935 759.175 498.61 761.197 498.61 763.557C498.61 768.903 494.708 770.251 493.746 770.54C496.106 771.021 499.717 772.707 499.717 777.523C499.717 780.268 498.754 782.483 497.308 783.928Z" fill="#3CA4B1"/>
<path d="M519.128 767.457C518.888 767.409 518.068 767.313 517.538 767.313C513.252 767.313 511.278 770.155 510.748 770.925V787.011H505.45V763.509H510.074V766.495C510.266 766.157 513.012 762.835 517.73 762.835C519.417 762.835 520.188 763.316 520.332 763.364L519.128 767.457Z" fill="#3CA4B1"/>
<path d="M536.368 775.596C535.839 775.596 535.26 775.596 535.26 775.596C531.938 775.596 529.288 776.079 527.94 777.427C527.315 778.053 527.026 778.824 527.026 779.835C527.026 782.243 528.904 783.399 531.167 783.399C533.912 783.399 535.983 782.001 536.368 781.809V775.596ZM536.754 787.011V785.276C536.416 785.517 533.671 787.492 529.819 787.492C525.195 787.492 522.258 784.457 522.258 780.076C522.258 772.033 532.227 771.84 535.502 771.84H536.368V770.925C536.368 769.432 536.223 768.613 535.598 767.988C534.923 767.313 533.96 766.928 531.794 766.928C528.615 766.928 525.774 768.565 525.436 768.759L523.607 765.339C523.992 765.001 527.026 762.787 532.227 762.787C535.743 762.787 537.862 763.605 539.547 765.291C541.377 767.12 541.376 769.432 541.376 772.563V787.011H536.754Z" fill="#3CA4B1"/>
<path d="M554.333 787.636C549.325 787.636 546.05 785.373 545.761 785.132L547.639 781.665C548.121 781.905 550.625 783.495 553.803 783.495C556.499 783.495 557.897 782.243 557.897 780.605C557.897 778.775 556.018 778.149 552.839 776.8C550.239 775.693 546.627 774.152 546.627 769.865C546.627 765.628 550.191 762.835 555.343 762.835C560.207 762.835 562.809 764.857 562.953 764.953L561.123 768.325C560.882 768.18 558.33 766.736 555.681 766.736C553.033 766.736 551.925 768.036 551.925 769.384C551.925 771.069 553.706 771.792 556.114 772.804C559.39 774.152 563.29 775.645 563.29 780.268C563.29 784.891 559.533 787.636 554.333 787.636Z" fill="#3CA4B1"/>
<path d="M569.021 787.011V763.509H574.319V787.011H569.021ZM571.669 759.56C569.936 759.56 568.54 758.211 568.54 756.479C568.54 754.744 569.936 753.348 571.669 753.348C573.404 753.348 574.752 754.744 574.752 756.479C574.752 758.211 573.404 759.56 571.669 759.56Z" fill="#3CA4B1"/>
<path d="M580.677 787.011V752.192H585.974V787.011H580.677Z" fill="#3CA4B1"/>
<path d="M348.063 732.937C353.642 738.867 362.973 739.149 368.902 733.567L388.318 715.295L375.934 702.137L345.783 730.516L348.063 732.937Z" fill="#2B56AD"/>
<path d="M318.051 701.052L330.476 714.253L343.634 701.871L333.484 691.089L366.652 659.875L404.49 700.073L407.002 697.709C412.928 692.129 413.212 682.799 407.632 676.869L377.619 644.985C372.036 639.056 362.71 638.773 356.779 644.353L318.682 680.212C312.755 685.792 312.472 695.123 318.051 701.052Z" fill="#2B56AD"/>
<path d="M407.336 757.011C413.263 751.431 413.546 742.1 407.966 736.171L389.695 716.757L376.539 729.14L404.915 759.289L407.336 757.011Z" fill="#952C99"/>
<path d="M375.451 787.023L388.654 774.595L376.27 761.44L365.487 771.587L334.274 738.421L374.471 700.585L372.107 698.072C366.529 692.143 357.197 691.863 351.267 697.443L319.381 727.455C313.454 733.035 313.171 742.365 318.751 748.295L354.611 786.393C360.194 792.32 369.522 792.603 375.451 787.023Z" fill="#952C99"/>
<path d="M431.409 697.739C425.827 691.809 416.499 691.525 410.569 697.108L391.153 715.381L403.539 728.536L433.688 700.16L431.409 697.739Z" fill="#3CA4B1"/>
<path d="M461.422 729.623L448.996 716.423L435.838 728.804L445.988 739.587L412.82 770.8L374.983 730.603L372.471 732.967C366.544 738.545 366.26 747.876 371.84 753.805L401.854 785.692C407.432 791.621 416.763 791.905 422.69 786.323L460.791 750.463C466.722 744.883 467 735.552 461.422 729.623Z" fill="#3CA4B1"/>
<path d="M372.136 673.664C366.207 679.244 365.924 688.575 371.507 694.504L389.778 713.917L402.936 701.535L374.558 671.385L372.136 673.664Z" fill="#EB144F"/>
<path d="M404.022 643.653L390.82 656.079L403.203 669.236L413.986 659.088L445.199 692.252L405 730.089L407.364 732.601C412.947 738.531 422.275 738.815 428.204 733.235L460.091 703.223C466.02 697.64 466.3 688.312 460.722 682.383L424.859 644.284C419.282 638.355 409.951 638.071 404.022 643.653Z" fill="#EB144F"/>
<path d="M481.608 646.687V697.151C481.608 709.14 490.218 720.148 502.643 720.148C513.107 720.148 523.463 710.448 523.463 697.151C523.463 683.853 513.107 674.153 502.643 674.153C495.778 674.153 490.982 676.988 486.511 681.673V676.769C489.674 674.153 494.688 670.229 502.643 670.229C516.704 670.229 527.82 681.565 527.82 697.151C527.82 712.736 516.704 724.072 502.643 724.072C488.584 724.072 477.466 712.736 477.466 697.151V646.687H481.608Z" fill="#211D1D"/>
<path d="M539.485 671.319V702.273C539.485 713.063 547.004 720.147 556.053 720.147C565.097 720.147 572.62 713.063 572.62 702.273V671.319H576.759V702.817C576.759 715.569 567.607 724.071 556.053 724.071C544.499 724.071 535.343 715.569 535.343 702.817V671.319H539.485Z" fill="#211D1D"/>
<path d="M591.028 653.444C592.88 653.444 594.299 654.863 594.299 656.713C594.299 658.565 592.88 659.984 591.028 659.984C589.177 659.984 587.759 658.565 587.759 656.713C587.759 654.863 589.177 653.444 591.028 653.444ZM588.959 671.32H593.101V722.981H588.959V671.32Z" fill="#211D1D"/>
<path d="M606.722 646.685H610.863V722.98H606.722V646.685Z" fill="#211D1D"/>
<path d="M670.03 646.687V697.151C670.03 712.736 658.913 724.072 644.854 724.072C630.794 724.072 619.677 712.736 619.677 697.151C619.677 681.565 630.794 670.229 644.854 670.229C652.809 670.229 657.823 674.153 660.985 676.769V681.673C656.515 676.988 651.719 674.153 644.854 674.153C634.39 674.153 624.037 683.853 624.037 697.151C624.037 710.448 634.39 720.148 644.854 720.148C657.279 720.148 665.889 709.14 665.889 697.151V646.687H670.03Z" fill="#211D1D"/>
<path d="M684.007 653.444C685.859 653.444 687.277 654.863 687.277 656.713C687.277 658.565 685.859 659.984 684.007 659.984C682.156 659.984 680.737 658.565 680.737 656.713C680.737 654.863 682.156 653.444 684.007 653.444ZM681.937 671.32H686.08V722.981H681.937V671.32Z" fill="#211D1D"/>
<path d="M735.13 722.981V692.027C735.13 681.237 727.61 674.153 718.562 674.153C709.517 674.153 701.994 681.237 701.994 692.027V722.981H697.855V691.483C697.855 678.732 707.009 670.229 718.562 670.229C730.115 670.229 739.271 678.732 739.271 691.483V722.981H735.13Z" fill="#211D1D"/>
<path d="M759.188 739.644C763.111 741.169 767.907 742.26 772.267 742.26C786.219 742.26 794.611 735.937 794.611 717.844V697.149C794.611 685.16 786 674.152 773.575 674.152C763.111 674.152 752.757 683.852 752.757 697.149C752.757 710.447 763.111 720.147 773.575 720.147C780.44 720.147 785.236 717.312 789.704 712.627V717.531C786.544 720.147 781.529 724.071 773.575 724.071C759.513 724.071 748.397 712.735 748.397 697.149C748.397 681.564 759.513 670.229 773.575 670.229C787.635 670.229 798.752 681.564 798.752 697.149V720.679C798.752 736.809 787.852 746.184 772.811 746.184C767.689 746.184 762.675 745.312 757.879 743.568L759.188 739.644Z" fill="#211D1D"/>
<path d="M987.517 643.621C970.232 643.621 959.496 654.359 959.496 671.647V724.739H967.584V690.375V676.893V670.228C967.584 658.539 975.223 651.277 987.517 651.277C999.812 651.277 1007.45 658.539 1007.45 670.228V680.027H971.863V687.461H1007.45V724.739H1015.54V671.647C1015.54 654.359 1004.8 643.621 987.517 643.621Z" fill="#EB144F"/>
<path d="M1063.36 684.036C1069.68 680.341 1072.87 674.02 1072.87 665.216C1072.87 652.503 1062.56 643.62 1047.79 643.62C1032.95 643.62 1023.37 653.723 1023.37 669.357V724.737H1031.46V669.14C1031.46 657.955 1037.56 651.276 1047.79 651.276C1057.67 651.276 1064.57 657.188 1064.57 665.652C1064.57 675.479 1057.97 681.115 1046.49 681.115H1036.04V688.553H1049.75C1060.29 688.553 1066.09 693.116 1066.09 701.4V724.737H1074.4V702.055C1074.4 693.387 1070.4 686.911 1063.36 684.036Z" fill="#EB144F"/>
<path d="M839.688 679.712C828.892 676.655 819.568 674.012 819.568 664.235C819.568 656.069 824.062 652.585 834.596 652.585H861.639V644.929H832.852C819.534 644.929 811.262 652.16 811.262 663.799C811.262 680.328 824.882 684.101 836.898 687.427C847.591 690.388 857.692 693.184 857.692 704.343C857.692 712.56 851.347 717.083 839.828 717.083H811.262V724.737H840.482C856.698 724.737 865.999 717.068 865.999 703.688C865.999 687.164 852.022 683.205 839.688 679.712Z" fill="#EB144F"/>
<path d="M938.687 643.621C933.515 643.621 932.155 645.18 929.588 654.036L911.548 715.149L893.509 654.044C890.94 645.18 889.58 643.621 884.408 643.621C878.339 643.621 877.5 649.481 877 652.989L867.248 724.739H875.372L885.053 653.161C885.077 653.233 885.097 653.312 885.12 653.391L903.429 715.947C905.496 723.128 906.469 725.611 911.548 725.611C916.625 725.611 917.599 723.128 919.663 715.955L937.985 653.356C938.003 653.289 938.021 653.221 938.037 653.161L947.723 724.739H955.849L946.092 652.977C945.592 649.479 944.755 643.621 938.687 643.621Z" fill="#EB144F"/>
<path d="M1074.49 644.929V652.368H1096.18V724.739H1104.27V652.368H1125.96V644.929H1074.49Z" fill="#EB144F"/>
<path d="M1118.22 724.593C1114.18 724.593 1110.89 721.245 1110.89 717.129C1110.89 713.013 1114.18 709.661 1118.22 709.661C1122.28 709.661 1125.58 713.013 1125.58 717.129C1125.58 721.245 1122.28 724.593 1118.22 724.593ZM1118.22 710.74C1116.54 710.74 1114.99 711.412 1113.84 712.636C1112.71 713.839 1112.09 715.435 1112.09 717.129C1112.09 718.82 1112.71 720.416 1113.84 721.62C1114.99 722.844 1116.54 723.517 1118.22 723.517C1121.62 723.517 1124.38 720.652 1124.38 717.129C1124.38 713.607 1121.62 710.74 1118.22 710.74ZM1122.13 721.625H1120.67L1118.23 717.605H1116.41V721.625H1115.34V712.792H1118.7C1120.6 712.792 1121.52 713.577 1121.52 715.191C1121.52 716.876 1120.5 717.368 1119.52 717.563L1122.13 721.625ZM1116.41 716.571H1117.91C1119.35 716.571 1120.36 716.469 1120.36 715.169C1120.36 714.265 1119.74 713.831 1118.46 713.831H1116.41V716.571Z" fill="#211D1D"/>
<path d="M817.267 777.605C817.267 775.604 816.747 773.975 815.71 772.72C814.672 771.467 813.334 770.839 811.694 770.839C809.932 770.839 808.375 771.405 807.026 772.539V784.011C808.423 784.784 809.751 785.169 811.006 785.169C812.888 785.169 814.402 784.476 815.547 783.088C816.694 781.701 817.267 779.873 817.267 777.605ZM819.51 777.679C819.51 780.452 818.714 782.715 817.122 784.464C815.53 786.213 813.479 787.088 810.97 787.088C809.378 787.088 808.062 786.761 807.026 786.111V794.433H804.854V769.355H806.916V770.549C808.364 769.463 810.028 768.92 811.911 768.92C814.178 768.92 816.011 769.723 817.411 771.327C818.81 772.932 819.51 775.049 819.51 777.679Z" fill="#7B7979"/>
<path d="M836.373 778.112C836.373 775.965 835.836 774.211 834.763 772.847C833.689 771.484 832.332 770.803 830.692 770.803C828.979 770.803 827.609 771.453 826.584 772.756C825.559 774.06 825.047 775.796 825.047 777.968C825.047 780.139 825.583 781.895 826.656 783.233C827.729 784.572 829.087 785.241 830.728 785.241C832.489 785.241 833.869 784.603 834.872 783.324C835.872 782.045 836.373 780.308 836.373 778.112ZM838.617 778.185C838.617 780.912 837.899 783.088 836.464 784.717C835.028 786.345 833.092 787.16 830.656 787.16C828.291 787.16 826.391 786.333 824.956 784.68C823.52 783.028 822.803 780.815 822.803 778.04C822.803 775.265 823.52 773.052 824.956 771.4C826.391 769.747 828.352 768.92 830.836 768.92C833.2 768.92 835.088 769.747 836.5 771.4C837.912 773.052 838.617 775.313 838.617 778.185Z" fill="#7B7979"/>
<path d="M852.261 769.173L851.754 770.983C851.249 770.911 850.778 770.875 850.343 770.875C849.257 770.875 848.267 771.128 847.375 771.635C846.723 771.996 846.157 772.467 845.674 773.047C845.458 773.336 845.253 773.625 845.059 773.915V786.725H842.889V769.355H844.95V771.635C846.471 769.801 848.305 768.884 850.451 768.884C851.079 768.884 851.682 768.981 852.261 769.173Z" fill="#7B7979"/>
<path d="M876.362 777.099C874.915 775.652 872.563 775.76 870.101 775.76H868.111V784.084H870.79C873.611 784.084 875.096 783.867 876.398 782.564C877.086 781.876 877.448 780.755 877.448 779.813C877.448 778.872 877.159 777.895 876.362 777.099ZM875.783 766.46C874.48 765.048 872.2 765.157 870.21 765.157H868.111V773.263H869.956C871.947 773.263 874.227 773.191 875.603 771.924C876.327 771.273 876.723 770.368 876.723 769.137C876.723 768.052 876.398 767.111 875.783 766.46ZM878.931 784.481C876.615 786.797 873.576 786.725 869.234 786.725H864.963V762.588H871.622C874.083 762.588 876.362 762.696 878.099 764.433C879.402 765.736 879.982 767.256 879.982 769.065C879.982 772.829 877.231 774.168 876.11 774.349C878.534 774.711 880.742 776.339 880.742 779.741C880.742 781.659 880.09 783.324 878.931 784.481Z" fill="#7B7979"/>
<path d="M884.722 786.725V762.588H887.979V786.725H884.722Z" fill="#7B7979"/>
<path d="M915.808 786.725L913.818 767.22L906.978 786.725H904.3L897.315 767.22L895.471 786.725H892.539L895.108 762.588H898.691L905.82 782.311L912.732 762.588H916.315L918.992 786.725H915.808Z" fill="#7B7979"/>
<path d="M934.482 765.265V772.865H943.746V775.471H934.482V786.725H931.261V762.588H944.325V765.265H934.482Z" fill="#7B7979"/>
<path d="M950.658 766.967L949.681 765.157L957.353 761.285L958.619 763.891L950.658 766.967ZM954.023 771.273C950.875 771.273 948.885 773.915 948.885 777.86C948.885 781.876 951.129 784.555 954.133 784.555C957.39 784.555 959.234 781.985 959.234 778.004C959.234 773.987 957.027 771.273 954.023 771.273ZM953.951 787.124C949.066 787.124 945.809 783.504 945.809 777.968C945.809 772.467 949.102 768.74 954.205 768.74C959.09 768.74 962.31 772.359 962.31 777.968C962.31 783.468 959.018 787.124 953.951 787.124Z" fill="#7B7979"/>
<path d="M974.905 771.527C974.689 771.491 974.145 771.417 973.602 771.417C970.165 771.417 968.717 773.915 968.428 774.276V786.725H965.352V769.211H968.102V771.491C968.282 771.273 970.2 768.74 973.748 768.74C975.05 768.74 975.521 769.029 975.629 769.065L974.905 771.527Z" fill="#7B7979"/>
<path d="M989.307 786.725V785.423C989.018 785.604 986.81 787.196 983.843 787.196C982.034 787.196 980.406 786.58 979.574 785.748C977.908 784.084 977.908 782.201 977.908 779.379V769.211H980.984V779.161C980.984 781.369 981.02 782.817 981.924 783.723C982.395 784.192 983.3 784.591 984.386 784.591C986.63 784.591 988.838 783.179 988.982 783.071V769.211H992.058V786.725H989.307Z" fill="#7B7979"/>
<path d="M1017.35 786.725V776.484C1017.35 775.399 1017.39 773.227 1016.48 772.251C1015.94 771.635 1015.15 771.345 1014.1 771.345C1011.96 771.345 1009.86 772.576 1009.46 772.829C1009.75 773.589 1009.75 775.507 1009.75 776.919V786.725H1006.71V777.027C1006.71 774.675 1006.75 773.083 1005.85 772.141C1005.38 771.671 1004.62 771.345 1003.57 771.345C1001.43 771.345 999.333 772.648 999.079 772.792V786.725H996.002V769.211H998.753V770.513C998.97 770.368 1001.36 768.74 1004.11 768.74C1006.32 768.74 1007.62 769.68 1008.42 770.767C1009.86 769.861 1011.85 768.74 1014.5 768.74C1016.92 768.74 1018.15 769.717 1018.69 770.26C1020.36 771.924 1020.43 773.733 1020.43 776.556V786.725H1017.35Z" fill="#7B7979"/>
<path d="M1043.73 777.099C1042.29 775.652 1039.94 775.76 1037.47 775.76H1035.48V784.084H1038.16C1040.99 784.084 1042.47 783.867 1043.77 782.564C1044.46 781.876 1044.82 780.755 1044.82 779.813C1044.82 778.872 1044.53 777.895 1043.73 777.099ZM1043.16 766.46C1041.85 765.048 1039.57 765.157 1037.58 765.157H1035.48V773.263H1037.33C1039.32 773.263 1041.6 773.191 1042.98 771.924C1043.7 771.273 1044.1 770.368 1044.1 769.137C1044.1 768.052 1043.77 767.111 1043.16 766.46ZM1046.31 784.481C1043.99 786.797 1040.95 786.725 1036.61 786.725H1032.34V762.588H1038.99C1041.46 762.588 1043.73 762.696 1045.47 764.433C1046.78 765.736 1047.35 767.256 1047.35 769.065C1047.35 772.829 1044.6 774.168 1043.48 774.349C1045.91 774.711 1048.11 776.339 1048.11 779.741C1048.11 781.659 1047.46 783.324 1046.31 784.481Z" fill="#7B7979"/>
<path d="M1061.14 771.527C1060.92 771.491 1060.38 771.417 1059.84 771.417C1056.4 771.417 1054.95 773.915 1054.66 774.276V786.725H1051.59V769.211H1054.34V771.491C1054.52 771.273 1056.44 768.74 1059.98 768.74C1061.29 768.74 1061.76 769.029 1061.87 769.065L1061.14 771.527Z" fill="#7B7979"/>
<path d="M1073.27 778.04C1072.83 778.04 1072.36 778.04 1072.36 778.04C1069.57 778.04 1067.33 778.439 1066.21 779.56C1065.67 780.103 1065.41 780.717 1065.41 781.587C1065.41 783.36 1066.68 784.591 1068.89 784.591C1071.06 784.591 1072.87 783.468 1073.27 783.288V778.04ZM1073.48 786.725V785.423C1073.27 785.531 1071.13 787.088 1068.13 787.088C1064.72 787.088 1062.48 784.88 1062.48 781.659C1062.48 775.869 1069.76 775.724 1072.47 775.724H1073.27V774.603C1073.27 773.625 1073.23 772.829 1072.54 772.141C1071.86 771.453 1070.73 771.236 1069.47 771.236C1066.9 771.236 1064.91 772.467 1064.65 772.612L1063.53 770.549C1063.71 770.368 1065.99 768.74 1069.76 768.74C1071.67 768.74 1073.59 769.283 1074.82 770.513C1076.12 771.816 1076.23 773.299 1076.23 775.724V786.725H1073.48Z" fill="#7B7979"/>
<path d="M1084.59 787.196C1081.12 787.196 1078.8 785.64 1078.58 785.459L1079.74 783.324C1080.1 783.541 1081.88 784.663 1084.41 784.663C1086.29 784.663 1087.78 783.613 1087.78 782.057C1087.78 778.475 1079.13 779.271 1079.13 773.697C1079.13 770.729 1081.66 768.74 1085.24 768.74C1088.64 768.74 1090.6 770.151 1090.78 770.296L1089.62 772.359C1089.4 772.213 1087.59 771.164 1085.46 771.164C1083.33 771.164 1082.24 772.213 1082.24 773.516C1082.24 776.883 1091 776.267 1091 781.84C1091 785.241 1088.03 787.196 1084.59 787.196Z" fill="#7B7979"/>
<path d="M1093.96 786.725V769.211H1097.04V786.725H1093.96ZM1095.48 765.519C1094.44 765.519 1093.6 764.687 1093.6 763.637C1093.6 762.588 1094.44 761.756 1095.48 761.756C1096.53 761.756 1097.37 762.588 1097.37 763.637C1097.37 764.687 1096.53 765.519 1095.48 765.519Z" fill="#7B7979"/>
<path d="M1100.95 786.725V760.633H1104.03V786.725H1100.95Z" fill="#7B7979"/>
<path d="M775.009 976.075L804.865 951.603C816.011 942.377 820.369 937.508 820.369 930.076C820.369 922.516 815.371 918.416 808.325 918.416C801.405 918.416 796.665 922.26 790.001 930.46L776.163 919.312C785.003 907.268 793.589 900.735 809.606 900.735C828.185 900.735 840.486 911.625 840.486 928.409V928.667C840.486 943.659 832.797 951.089 816.909 963.391L802.302 974.667H841.383V991.708H775.009V976.075Z" fill="#2B56AD"/>
<path d="M912.361 947.119V946.861C912.361 930.588 904.417 918.288 892.629 918.288C880.841 918.288 873.153 930.204 873.153 946.605V946.861C873.153 963.263 880.969 975.435 892.886 975.435C904.801 975.435 912.361 963.391 912.361 947.119ZM852.907 947.119V946.861C852.907 920.849 869.053 900.477 892.886 900.477C916.59 900.477 932.607 920.595 932.607 946.605V946.861C932.607 972.872 916.59 993.245 892.629 993.245C868.667 993.245 852.907 973.128 852.907 947.119Z" fill="#2B56AD"/>
<path d="M941.955 976.075L971.811 951.603C982.958 942.377 987.315 937.508 987.315 930.076C987.315 922.516 982.318 918.416 975.271 918.416C968.351 918.416 963.611 922.26 956.946 930.46L943.11 919.312C951.95 907.268 960.535 900.735 976.552 900.735C995.13 900.735 1007.43 911.625 1007.43 928.409V928.667C1007.43 943.659 999.743 951.089 983.855 963.391L969.247 974.667H1008.33V991.708H941.955V976.075Z" fill="#2B56AD"/>
<path d="M1062.01 956.344V928.409L1038.18 956.344H1062.01ZM1062.01 972.36H1018.19L1014.99 958.393L1064.19 901.375H1080.84V956.344H1092.89V972.36H1080.84V991.708H1062.01V972.36Z" fill="#2B56AD"/>
<mask id="mask1_3256_2273" style="mask-type:luminance" maskUnits="userSpaceOnUse" x="231" y="325" width="978" height="790">
<path d="M1129.92 1114.87H310.081C266.847 1114.87 231.801 1079.82 231.801 1036.59V403.413C231.801 360.18 266.847 325.133 310.081 325.133H1129.92C1173.15 325.133 1208.2 360.18 1208.2 403.413V1036.59C1208.2 1079.82 1173.15 1114.87 1129.92 1114.87Z" fill="white"/>
</mask>
<g mask="url(#mask1_3256_2273)">
<path d="M102.94 1163.72L155.059 1219.09L210.254 1167.15L167.68 1121.92L306.81 990.985L465.53 1159.61L476.071 1149.69C500.931 1126.29 502.118 1087.15 478.712 1062.27L352.817 928.528C329.399 903.656 290.271 902.469 265.398 925.875L105.581 1076.3C80.7202 1099.7 79.5338 1138.84 102.94 1163.72Z" fill="#DEDDDE"/>
<path d="M329.815 1048.83C304.942 1072.24 303.755 1111.38 327.173 1136.25L403.821 1217.68L459.017 1165.74L339.973 1039.27L329.815 1048.83Z" fill="#DEDDDE"/>
<path d="M463.567 922.941L408.193 975.061L460.133 1030.26L505.361 987.683L636.299 1126.8L467.676 1285.52L477.592 1296.06C501.009 1320.93 540.139 1322.12 565.011 1298.71L698.768 1172.82C723.64 1149.4 724.815 1110.27 701.409 1085.4L550.972 925.583C527.58 900.711 488.439 899.523 463.567 922.941Z" fill="#DEDDDE"/>
<path d="M1185.64 374.868C1210.5 351.463 1211.69 312.323 1188.29 287.449L1111.64 206.016L1056.46 257.957L1175.49 384.427L1185.64 374.868Z" fill="#DEDDDE"/>
<path d="M1051.89 500.764L1107.28 448.632L1055.32 393.449L1010.1 436.011L879.159 296.893L1047.78 138.175L1037.87 127.633C1014.46 102.76 975.321 101.587 950.447 124.991L816.69 250.887C791.83 274.292 790.643 313.433 814.048 338.305L964.473 498.123C987.89 522.983 1027.02 524.169 1051.89 500.764Z" fill="#DEDDDE"/>
<path d="M1412.52 259.983L1360.4 204.609L1305.21 256.549L1347.77 301.777L1208.65 432.715L1049.93 264.092L1039.39 274.008C1014.53 297.413 1013.34 336.553 1036.75 361.427L1162.64 495.184C1186.05 520.056 1225.19 521.243 1250.05 497.825L1409.88 347.401C1434.75 323.996 1435.92 284.855 1412.52 259.983Z" fill="#DEDDDE"/>
</g>
<defs>
<radialGradient id="paint0_radial_3256_2273" cx="0" cy="0" r="1" gradientUnits="userSpaceOnUse" gradientTransform="translate(720.001 720) scale(443.993 443.993)">
<stop stop-color="white"/>
<stop offset="0.335672" stop-color="white"/>
<stop offset="1" stop-color="#E9E9E9"/>
</radialGradient>
</defs>
</svg>
