<svg width="1440" height="1440" viewBox="0 0 1440 1440" fill="none" xmlns="http://www.w3.org/2000/svg">
<path d="M1236.44 409.46L988.599 266.367C981.969 262.54 973.801 262.539 967.17 266.367L203.556 707.165C196.925 710.993 192.84 718.068 192.84 725.725V1011.98C192.84 1019.64 196.924 1026.71 203.555 1030.54L455.099 1175.77C461.728 1179.6 469.896 1179.6 476.527 1175.77L1236.44 737.105C1243.07 733.277 1247.16 726.203 1247.16 718.547V428.017C1247.16 420.361 1243.07 413.288 1236.44 409.46Z" fill="#D3D2D2"/>
<path d="M1216.63 1091.96L1216.6 714.341L489.095 294.332C482.464 290.504 474.295 290.504 467.664 294.333L235.827 428.212C229.196 432.041 225.112 439.116 225.113 446.772L225.139 730.808L1026.23 1044.49C1032.86 1048.32 1041.03 1048.32 1047.66 1044.49L1205.91 1110.52C1212.54 1106.69 1216.63 1099.62 1216.63 1091.96Z" fill="#918F90"/>
<mask id="mask0_3256_2149" style="mask-type:luminance" maskUnits="userSpaceOnUse" x="246" y="177" width="948" height="1086">
<path d="M260.746 438.791L706.093 181.669C714.699 176.701 725.302 176.701 733.907 181.669L1179.25 438.791C1187.86 443.76 1193.16 452.941 1193.16 462.879V977.121C1193.16 987.059 1187.86 996.24 1179.25 1001.21L733.907 1258.33C725.302 1263.3 714.699 1263.3 706.093 1258.33L260.746 1001.21C252.139 996.24 246.838 987.059 246.838 977.121V462.879C246.838 452.941 252.139 443.76 260.746 438.791Z" fill="white"/>
</mask>
<g mask="url(#mask0_3256_2149)">
<path d="M260.746 438.791L706.093 181.669C714.699 176.701 725.302 176.701 733.907 181.669L1179.25 438.791C1187.86 443.76 1193.16 452.941 1193.16 462.879V977.121C1193.16 987.059 1187.86 996.24 1179.25 1001.21L733.907 1258.33C725.302 1263.3 714.699 1263.3 706.093 1258.33L260.746 1001.21C252.139 996.24 246.838 987.059 246.838 977.121V462.879C246.838 452.941 252.139 443.76 260.746 438.791Z" fill="url(#paint0_radial_3256_2149)"/>
</g>
<path d="M916.76 291.461H244.731C233.896 291.461 225.113 300.244 225.113 311.079V446.772H1125.81C1145.89 446.772 1153 420.184 1135.61 410.159L940.852 297.907C933.525 293.684 925.217 291.461 916.76 291.461Z" fill="#918F90"/>
<path d="M899.996 1160.47H1200.37C1209.35 1160.47 1216.63 1153.19 1216.63 1144.22V1031.78H726.775C710.138 1031.78 704.243 1053.81 718.658 1062.12L880.032 1155.13C886.104 1158.63 892.988 1160.47 899.996 1160.47Z" fill="#918F90"/>
<path d="M927.037 1066.23L933.827 1079.99C934.203 1080.75 934.928 1081.28 935.768 1081.4L950.951 1083.61C953.064 1083.91 953.909 1086.51 952.379 1088L941.392 1098.71C940.785 1099.3 940.508 1100.16 940.651 1100.99L943.245 1116.11C943.607 1118.22 941.396 1119.83 939.505 1118.83L925.925 1111.69C925.173 1111.3 924.277 1111.3 923.527 1111.69L909.945 1118.83C908.056 1119.83 905.845 1118.22 906.207 1116.11L908.8 1100.99C908.944 1100.16 908.667 1099.3 908.059 1098.71L897.072 1088C895.543 1086.51 896.387 1083.91 898.5 1083.61L913.684 1081.4C914.523 1081.28 915.249 1080.75 915.624 1079.99L922.415 1066.23C923.36 1064.31 926.091 1064.31 927.037 1066.23Z" fill="white"/>
<path d="M1009.63 1066.23L1016.42 1079.99C1016.8 1080.75 1017.52 1081.28 1018.36 1081.4L1033.55 1083.61C1035.66 1083.91 1036.5 1086.51 1034.97 1088L1023.99 1098.71C1023.38 1099.3 1023.1 1100.16 1023.25 1100.99L1025.84 1116.11C1026.2 1118.22 1023.99 1119.83 1022.1 1118.83L1008.52 1111.69C1007.77 1111.3 1006.87 1111.3 1006.12 1111.69L992.541 1118.83C990.65 1119.83 988.441 1118.22 988.802 1116.11L991.396 1100.99C991.538 1100.16 991.261 1099.3 990.654 1098.71L979.668 1088C978.138 1086.51 978.982 1083.91 981.096 1083.61L996.278 1081.4C997.118 1081.28 997.844 1080.75 998.22 1079.99L1005.01 1066.23C1005.96 1064.31 1008.69 1064.31 1009.63 1066.23Z" fill="white"/>
<path d="M322.967 375.185L310.283 346.705L297.519 375.185H322.967ZM307.411 339.367H313.315L338.762 395.607H331.982L325.44 380.849H295.047L288.426 395.607H281.963L307.411 339.367Z" fill="white"/>
<path d="M343.711 390.341L346.822 385.955C351.288 389.304 356.234 391.219 361.102 391.219C366.047 391.219 369.636 388.667 369.636 384.679V384.519C369.636 380.369 364.771 378.775 359.346 377.259C352.886 375.424 345.706 373.191 345.706 365.612V365.453C345.706 358.353 351.608 353.645 359.744 353.645C364.771 353.645 370.355 355.401 374.583 358.192L371.791 362.82C367.962 360.348 363.574 358.832 359.586 358.832C354.719 358.832 351.608 361.384 351.608 364.813V364.973C351.608 368.883 356.714 370.399 362.219 372.075C368.6 373.988 375.46 376.461 375.46 383.88V384.039C375.46 391.857 368.999 396.405 360.782 396.405C354.879 396.405 348.336 394.091 343.711 390.341Z" fill="white"/>
<path d="M381.047 390.341L384.159 385.955C388.624 389.304 393.57 391.219 398.438 391.219C403.383 391.219 406.974 388.667 406.974 384.679V384.519C406.974 380.369 402.107 378.775 396.682 377.259C390.222 375.424 383.042 373.191 383.042 365.612V365.453C383.042 358.353 388.943 353.645 397.08 353.645C402.107 353.645 407.69 355.401 411.919 358.192L409.127 362.82C405.296 360.348 400.91 358.832 396.922 358.832C392.055 358.832 388.943 361.384 388.943 364.813V364.973C388.943 368.883 394.05 370.399 399.555 372.075C405.936 373.988 412.796 376.461 412.796 383.88V384.039C412.796 391.857 406.334 396.405 398.118 396.405C392.215 396.405 385.674 394.091 381.047 390.341Z" fill="white"/>
<path d="M456.753 375.185V375.024C456.753 366.171 450.131 358.912 441.437 358.912C432.502 358.912 426.359 366.171 426.359 374.865V375.024C426.359 383.88 432.901 391.06 441.597 391.06C450.531 391.06 456.753 383.88 456.753 375.185ZM420.057 375.185V375.024C420.057 363.379 429.151 353.487 441.597 353.487C453.961 353.487 463.055 363.219 463.055 374.865V375.024C463.055 386.672 453.881 396.564 441.437 396.564C429.071 396.564 420.057 386.832 420.057 375.185Z" fill="white"/>
<path d="M470 375.185V375.024C470 363.379 479.093 353.487 491.139 353.487C498.956 353.487 503.824 356.757 507.652 360.825L503.584 365.135C500.313 361.703 496.644 358.912 491.059 358.912C482.683 358.912 476.301 366.011 476.301 374.865V375.024C476.301 383.96 482.841 391.06 491.459 391.06C496.723 391.06 500.792 388.427 504.063 384.916L507.972 388.587C503.824 393.213 498.877 396.564 491.139 396.564C479.093 396.564 470 386.752 470 375.185Z" fill="white"/>
<path d="M517.069 354.364H523.211V395.607H517.069V354.364ZM516.67 338.569H523.689V345.351H516.67V338.569Z" fill="white"/>
<path d="M563.097 380.451V376.621C560.065 375.744 556.077 374.865 551.053 374.865C543.393 374.865 539.005 378.216 539.005 383.163V383.321C539.005 388.507 543.791 391.537 549.375 391.537C556.954 391.537 563.097 386.991 563.097 380.451ZM532.783 383.64V383.481C532.783 374.627 539.963 370 550.413 370C555.677 370 559.347 370.717 563.017 371.755V370.477C563.017 363.139 558.55 359.309 550.813 359.309C545.945 359.309 542.117 360.507 538.287 362.261L536.453 357.236C540.999 355.161 545.389 353.727 551.45 353.727C557.274 353.727 561.821 355.321 564.773 358.273C567.643 361.144 569.081 365.135 569.081 370.399V395.607H563.017V389.465C560.146 393.135 555.439 396.484 548.179 396.484C540.442 396.484 532.783 392.096 532.783 383.64Z" fill="white"/>
<path d="M613.836 375.024V374.865C613.836 365.372 606.576 358.991 598.918 358.991C590.942 358.991 584.399 364.895 584.399 374.865V375.024C584.399 384.757 591.1 390.98 598.918 390.98C606.576 390.98 613.836 384.519 613.836 375.024ZM578.098 375.105V374.945C578.098 361.464 587.91 353.487 597.802 353.487C605.459 353.487 610.406 357.636 613.598 362.261V337.372H619.739V395.607H613.598V387.309C610.246 392.256 605.38 396.484 597.802 396.484C587.91 396.484 578.098 388.667 578.098 375.105Z" fill="white"/>
<path d="M666.009 375.185V375.024C666.009 366.171 659.389 358.912 650.693 358.912C641.758 358.912 635.616 366.171 635.616 374.865V375.024C635.616 383.88 642.157 391.06 650.852 391.06C659.786 391.06 666.009 383.88 666.009 375.185ZM629.314 375.185V375.024C629.314 363.379 638.408 353.487 650.852 353.487C663.217 353.487 672.312 363.219 672.312 374.865V375.024C672.312 386.672 663.138 396.564 650.693 396.564C638.329 396.564 629.314 386.832 629.314 375.185Z" fill="white"/>
<path d="M702.789 385.875L721.376 370.637C728.316 364.895 731.029 361.863 731.029 357.236C731.029 352.529 727.917 349.976 723.529 349.976C719.222 349.976 716.272 352.369 712.122 357.475L703.506 350.535C709.01 343.036 714.356 338.968 724.328 338.968C735.893 338.968 743.553 345.748 743.553 356.199V356.357C743.553 365.691 738.766 370.319 728.876 377.976L719.78 384.997H744.11V395.607H702.789V385.875Z" fill="white"/>
<path d="M786.712 367.847V367.687C786.712 357.555 781.767 349.897 774.429 349.897C767.09 349.897 762.303 357.316 762.303 367.527V367.687C762.303 377.897 767.167 385.475 774.587 385.475C782.006 385.475 786.712 377.976 786.712 367.847ZM749.699 367.847V367.687C749.699 351.492 759.75 338.808 774.587 338.808C789.345 338.808 799.317 351.333 799.317 367.527V367.687C799.317 383.88 789.345 396.564 774.429 396.564C759.51 396.564 749.699 384.039 749.699 367.847Z" fill="white"/>
<path d="M803.549 385.875L822.135 370.637C829.075 364.895 831.788 361.863 831.788 357.236C831.788 352.529 828.677 349.976 824.289 349.976C819.982 349.976 817.03 352.369 812.882 357.475L804.266 350.535C809.771 343.036 815.114 338.968 825.086 338.968C836.654 338.968 844.313 345.748 844.313 356.199V356.357C844.313 365.691 839.526 370.319 829.634 377.976L820.539 384.997H844.87V395.607H803.549V385.875Z" fill="white"/>
<path d="M876.703 373.589V356.199L861.866 373.589H876.703ZM876.703 383.561H849.42L847.426 374.865L878.058 339.367H888.431V373.589H895.928V383.561H888.431V395.607H876.703V383.561Z" fill="white"/>
<path d="M821.569 666.243C834.277 666.243 841.94 661.757 841.94 652.039V651.667C841.94 642.883 835.397 637.464 820.635 637.464H787.369V666.243H821.569ZM813.907 613.543C826.615 613.543 834.651 609.429 834.651 599.711V599.339C834.651 590.74 827.923 585.883 815.776 585.883H787.369V613.543H813.907ZM759.336 560.652H820.075C835.027 560.652 846.799 564.764 854.275 572.24C860.255 578.22 863.245 585.508 863.245 594.479V594.853C863.245 609.617 855.396 617.84 846.052 623.072C861.191 628.865 870.532 637.649 870.532 655.217V655.591C870.532 679.512 851.096 691.473 821.569 691.473H759.336V560.652Z" fill="#234D5B"/>
<path d="M888.094 560.652H916.876V691.473H888.094V560.652Z" fill="#234D5B"/>
<path d="M942.104 560.652H973.128L1007.51 615.971L1041.9 560.652H1072.92V691.473H1044.33V606.067L1007.51 661.945H1006.77L970.325 606.627V691.473H942.104V560.652Z" fill="#234D5B"/>
<path d="M761.078 710.063H805.563V716.519H768.065V738.629H801.583V744.996H768.065V771.971H761.078V710.063Z" fill="#00AAA9"/>
<path d="M849.074 692.287L856.059 695.469L845.89 703.696H840.228L849.074 692.287ZM867.38 741.195V741.017C867.38 726.955 857.122 715.457 842.97 715.457C828.82 715.457 818.738 726.777 818.738 740.839V741.017C818.738 755.079 828.998 766.576 843.147 766.576C857.298 766.576 867.38 755.256 867.38 741.195ZM811.484 741.195V741.017C811.484 723.948 824.31 709.001 843.147 709.001C861.984 709.001 874.632 723.771 874.632 740.839V741.017C874.632 758.087 861.808 773.032 842.97 773.032C824.131 773.032 811.484 758.263 811.484 741.195Z" fill="#00AAA9"/>
<path d="M911.859 741.636C921.144 741.636 927.777 736.86 927.777 728.9V728.724C927.777 721.117 921.941 716.519 911.947 716.519H892.844V741.636H911.859ZM885.857 710.063H912.477C920.084 710.063 926.185 712.361 930.077 716.253C933.084 719.26 934.853 723.593 934.853 728.459V728.636C934.853 738.895 927.777 744.908 918.049 746.677L937.064 771.971H928.484L910.532 747.916H892.844V771.971H885.857V710.063Z" fill="#00AAA9"/>
<path d="M945.283 746.057V710.063H952.27V745.616C952.27 758.971 959.345 766.488 971.197 766.488C982.606 766.488 989.857 759.589 989.857 746.057V710.063H996.843V745.528C996.843 763.569 986.497 772.944 971.019 772.944C955.719 772.944 945.283 763.569 945.283 746.057Z" fill="#00AAA9"/>
<path d="M1009.84 710.063H1016.91L1039.47 743.847L1062.02 710.063H1069.09V771.971H1062.11V721.825L1039.55 754.991H1039.2L1016.65 721.913V771.971H1009.84V710.063Z" fill="#00AAA9"/>
<path d="M787.786 832.441C793.005 832.441 796.013 830.407 796.013 826.781V826.605C796.013 823.244 793.358 821.033 787.61 821.033H774.522V832.441H787.786ZM785.31 809.004C790.529 809.004 793.446 807.236 793.446 803.609V803.432C793.446 800.072 790.794 798.125 785.663 798.125H774.522V809.004H785.31ZM757.805 784.329H789.555C797.338 784.329 802.822 786.276 806.447 789.901C808.923 792.377 810.427 795.649 810.427 799.895V800.072C810.427 807.236 806.361 811.48 800.877 813.868C808.394 816.345 813.17 820.589 813.17 828.993V829.169C813.17 839.781 804.502 846.239 789.733 846.239H757.805V784.329Z" fill="#234D5B"/>
<path d="M846.417 814.047C852.253 814.047 855.614 811.216 855.614 806.705V806.528C855.614 801.665 852.077 799.187 846.329 799.187H835.097V814.047H846.417ZM817.939 784.329H847.213C856.675 784.329 863.221 786.805 867.378 791.051C871.003 794.588 872.86 799.365 872.86 805.467V805.644C872.86 815.108 867.819 821.387 860.125 824.659L874.894 846.239H855.083L842.614 827.488H842.437H835.097V846.239H817.939V784.329Z" fill="#234D5B"/>
<path d="M913.805 821.828L906.906 804.229L899.919 821.828H913.805ZM898.77 783.888H915.307L941.665 846.239H923.267L918.757 835.183H894.878L890.455 846.239H872.414L898.77 783.888Z" fill="#234D5B"/>
<path d="M939.006 837.04L948.557 825.632C954.661 830.496 961.47 833.06 968.634 833.06C973.233 833.06 975.709 831.469 975.709 828.816V828.637C975.709 826.073 973.674 824.659 965.273 822.712C952.094 819.707 941.923 815.991 941.923 803.256V803.08C941.923 791.583 951.033 783.268 965.89 783.268C976.417 783.268 984.641 786.099 991.362 791.493L982.783 803.609C977.123 799.631 970.933 797.508 965.449 797.508C961.293 797.508 959.259 799.277 959.259 801.487V801.665C959.259 804.493 961.381 805.732 969.959 807.679C984.199 810.775 993.042 815.373 993.042 826.959V827.135C993.042 839.781 983.05 847.3 968.014 847.3C957.049 847.3 946.611 843.851 939.006 837.04Z" fill="#234D5B"/>
<path d="M998.611 784.329H1015.86V846.239H998.611V784.329Z" fill="#234D5B"/>
<path d="M1024.08 784.329H1041.24V831.204H1071.22V846.239H1024.08V784.329Z" fill="#234D5B"/>
<path d="M452.976 632.785L447.084 543.467C460.044 561.879 471.64 581.331 481.723 601.668L460.868 633.193L452.976 632.785Z" fill="#234D5B"/>
<path d="M494.732 578.861L533.443 543.124C533.655 549.4 533.619 555.785 533.344 562.26L508.014 611.76L504.76 610.029L494.732 578.861Z" fill="#00AAA9"/>
<path d="M458.638 626.847L457.108 631.153L453.148 624.313L458.638 626.847Z" fill="#234D5B"/>
<path d="M504.484 629.185L562.151 554.307C567.582 565.561 572.499 577.053 576.93 588.732L517.822 647.885L504.484 629.185Z" fill="#85CE26"/>
<path d="M487.172 608.896L504.526 642.719L470.652 633.327L487.172 608.896Z" fill="#85CE26"/>
<path d="M521.26 854.316L555.084 836.964L545.69 870.837L521.26 854.316Z" fill="#234D5B"/>
<path d="M517.176 654.055L517.906 614.016L530.764 621.124L527.297 651.679L517.176 654.055Z" fill="#234D5B"/>
<path d="M523.887 699.131L504.375 711.909L496.383 706.261L521.777 696.488L523.887 699.131Z" fill="#234D5B"/>
<path d="M402.705 610.047L430.207 610.435C434.793 623.255 438.806 636.431 442.214 649.913L399.031 616.721L402.705 610.047Z" fill="#00AAA9"/>
<path d="M442.419 587.331C444.644 598.933 446.407 610.671 447.696 622.511L415.064 612.213L442.419 587.331Z" fill="#85CE26"/>
<path d="M624.178 755.109L693.612 692.905L672.61 748.4L626.183 759.001L624.178 755.109Z" fill="#85CE26"/>
<path d="M397.368 683.164L389.119 614.425L391.003 610.863L443.446 644.887C444.032 646.691 444.603 648.503 445.167 650.317L442.731 655.568L397.368 683.164Z" fill="#234D5B"/>
<path d="M550.713 703.381L552.811 702.388C552.069 712.504 550.942 722.763 549.427 733.128L515.309 770.704L512.523 766.736L514.839 755.453L550.713 703.381Z" fill="#00AAA9"/>
<path d="M617.197 701.623L662.151 675.076L625.863 753.475L617.197 701.623Z" fill="#85CE26"/>
<path d="M573.104 577.561L582.94 518.096C592.438 522.691 601.744 527.821 610.829 533.453L607.473 555.993L573.104 577.561Z" fill="#234D5B"/>
<path d="M552.811 546.844L561.457 526.588C566.009 530.984 570.444 535.523 574.757 540.203L552.811 546.844Z" fill="#85CE26"/>
<path d="M561.271 584.272L581.778 566.159L622.083 571.584L575.443 614.175L561.271 584.272Z" fill="#85CE26"/>
<path d="M538.172 606.6L548.62 547.94L567.944 536.916C570.204 538.432 572.448 539.975 574.675 541.551L568.725 620.864L538.172 606.6Z" fill="#234D5B"/>
<path d="M603.111 596.853L631.285 583.561L623.845 609.488L603.111 596.853Z" fill="#234D5B"/>
<path d="M655.488 589.685L704.87 605.496L630.148 651.577L655.488 589.685Z" fill="#234D5B"/>
<path d="M649.759 626.964L702.155 642.693L704.002 660.532L640.27 697.615L622.057 682.007L649.623 627.012L649.759 626.964Z" fill="#00AAA9"/>
<path d="M551.389 669.02L605.654 603.783L623.874 629.896L583.602 679.996L551.389 669.02Z" fill="#234D5B"/>
<path d="M527.908 699.829L546.708 667.399L570.007 672.177L543.474 725.953L527.908 699.829Z" fill="#85CE26"/>
<path d="M524.23 607.429L562.634 642.295C556.491 643.027 550.221 643.525 543.841 643.799L493.078 623.168L494.498 619.843L524.23 607.429Z" fill="#00AAA9"/>
<path d="M439.367 588.035L410.557 526.808C417.269 529.28 424.018 532.103 430.779 535.243L451.25 590.081L439.367 588.035Z" fill="#234D5B"/>
<path d="M574.169 787.361L632.984 820.824C626.072 822.669 618.929 824.247 611.593 825.575L563.277 792.532L574.169 787.361Z" fill="#234D5B"/>
<path d="M413.744 647.777L413.813 647.44L416.896 637.573L432.327 655.016L430.019 656.712L413.744 647.777Z" fill="#234D5B"/>
<path d="M532.668 655.131L530.829 658.372L529.738 657.757L532.668 655.131Z" fill="#234D5B"/>
<path d="M555.787 642.035L585.444 651.441L561.644 666.055L555.787 642.035Z" fill="#85CE26"/>
<path d="M532.839 724.867L496.539 724.367L502.732 712.977L530.49 715.931L532.839 724.867Z" fill="#00AAA9"/>
<path d="M461.543 549.779L480.208 548.928C483.307 558.241 486.018 567.843 488.318 577.696L459.043 554.879L461.543 549.779Z" fill="#00AAA9"/>
<path d="M549.878 829.765L568.544 828.915C571.643 838.228 574.354 847.829 576.654 857.683L547.379 834.865L549.878 829.765Z" fill="#85CE26"/>
<path d="M614.693 790.02L677.397 763.541L647.693 796.551L614.837 793.132L614.693 790.02Z" fill="#234D5B"/>
<path d="M520.215 828.939L582.919 802.461L553.215 835.471L520.36 832.052L520.215 828.939Z" fill="#00AAA9"/>
<path d="M570.98 644.533L589.903 627.432L593.043 655.156L591.303 661.048L570.98 644.533Z" fill="#234D5B"/>
<path d="M613.318 670.744L610.703 661.213L618.68 671.227L613.318 670.744Z" fill="#234D5B"/>
<path d="M459.943 656.411L476.973 682.581L450.053 683.208L459.943 656.411Z" fill="#85CE26"/>
<path d="M577.566 798.777L594.596 824.947L567.676 825.575L577.566 798.777Z" fill="#234D5B"/>
<path d="M474.52 512.66L486.223 530.643L467.723 531.073L474.52 512.66Z" fill="#234D5B"/>
<path d="M420.583 571.456L432.284 589.44L413.785 589.871L420.583 571.456Z" fill="#234D5B"/>
<path d="M531.143 771.075L522.451 790.691L512.002 775.42L531.143 771.075Z" fill="#234D5B"/>
<path d="M526.567 512.416L521.215 524.496L514.779 515.092L526.567 512.416Z" fill="#234D5B"/>
<path d="M466.151 534.764L460.798 546.844L454.363 537.44L466.151 534.764Z" fill="#234D5B"/>
<path d="M388.112 592.339L382.759 604.419L376.324 595.015L388.112 592.339Z" fill="#234D5B"/>
<path d="M520.05 726.352L514.698 738.432L508.262 729.028L520.05 726.352Z" fill="#234D5B"/>
<path d="M685.517 742.555L680.163 754.635L673.729 745.231L685.517 742.555Z" fill="#234D5B"/>
<path d="M725.829 680.672L720.476 692.752L714.041 683.348L725.829 680.672Z" fill="#234D5B"/>
<path d="M536.975 875.267L554.959 863.564L555.389 882.064L536.975 875.267Z" fill="#234D5B"/>
<path d="M514.722 831.101L526.424 849.084L507.926 849.515L514.722 831.101Z" fill="#234D5B"/>
<path d="M705.844 578.703L717.547 596.687L699.047 597.117L705.844 578.703Z" fill="#234D5B"/>
<path d="M678.87 753.191L690.572 771.175L672.072 771.605L678.87 753.191Z" fill="#85CE26"/>
<path d="M373.87 618.816L385.573 636.799L367.074 637.231L373.87 618.816Z" fill="#234D5B"/>
<path d="M693.613 670.251L704.692 654.959L726.38 633.193L743.191 652.388L722.028 680.309L693.613 670.251Z" fill="#234D5B"/>
<path d="M641.927 598.379L625.178 586.564C630.012 583.389 634.956 580.347 640.004 577.443L641.927 598.379Z" fill="#00AAA9"/>
<path d="M486.965 559.06L488.342 536.539L514.157 517.429L511.812 569.504L486.965 559.06Z" fill="#85CE26"/>
<path d="M542.191 812.144L543.567 789.623L569.383 770.513L567.038 822.588L542.191 812.144Z" fill="#85CE26"/>
<path d="M626.219 601.464C623.079 610.963 618.788 620.305 613.437 629.42L569.664 626.509L557.139 612.323L571.389 588.372L626.219 601.464Z" fill="#00AAA9"/>
<path d="M691.361 710.723C688.223 720.221 683.932 729.564 678.583 738.679L634.808 735.768L622.281 721.581L636.533 697.631L691.361 710.723Z" fill="#00AAA9"/>
<path d="M601.301 656.428C610.238 651.931 619.878 648.359 630.106 645.697L659.001 678.708L657.826 697.596L630.813 704.455L601.301 656.428Z" fill="#234D5B"/>
<path d="M530.582 750.147L584.655 682.124C590.373 692.831 595.597 703.741 600.346 714.809L544.319 768.084L530.582 750.147Z" fill="#234D5B"/>
<path d="M577.385 760.103L587.833 701.443L607.157 690.419C609.417 691.935 611.661 693.476 613.887 695.052L607.938 774.367L577.385 760.103Z" fill="#234D5B"/>
<path d="M561.447 754.599L599.851 789.464C593.708 790.196 587.438 790.693 581.059 790.968L530.295 770.337L531.715 767.012L561.447 754.599Z" fill="#00AAA9"/>
<path d="M665.43 754.967C662.29 764.465 658 773.808 652.65 782.923L608.876 780.012L596.35 765.825L610.602 741.875L665.43 754.967Z" fill="#00AAA9"/>
<path d="M390.43 609.38L412.495 591.288L411.343 616.276L390.43 609.38Z" fill="#85CE26"/>
<path d="M695.44 612.825L729.967 620.259L681.324 661.257L695.44 612.825Z" fill="#234D5B"/>
<path d="M592.903 766.752L627.431 774.185L578.787 815.184L592.903 766.752Z" fill="#85CE26"/>
<path d="M581.162 684.231L610.586 662.289L621.645 669.467L618.442 722.013L602.334 724.975L581.137 684.328L581.162 684.231Z" fill="#85CE26"/>
<path d="M596.209 637.168L644.294 580.576L658.896 603.645L623.157 647.12L596.209 637.168Z" fill="#85CE26"/>
<path d="M551.133 716.828L561.581 658.169L580.905 647.145C583.165 648.66 585.41 650.203 587.635 651.779L581.686 731.092L551.133 716.828Z" fill="#00AAA9"/>
<path d="M484.726 680.661L501.827 699.583L474.103 702.724L468.211 700.984L484.726 680.661Z" fill="#234D5B"/>
<path d="M529.338 649.624C526.198 659.124 521.907 668.467 516.558 677.58L472.784 674.669L460.258 660.484L474.51 636.532L529.338 649.624Z" fill="#00AAA9"/>
<path d="M499.33 685.329L547.415 628.736L562.017 651.805L526.277 695.281L499.33 685.329Z" fill="#234D5B"/>
<path d="M695.55 709.503L662.414 670.712L684.557 664.873L708.297 688.576L695.55 709.503Z" fill="#234D5B"/>
<path d="M688.316 668.472L698.079 660.041L710.09 667.004L691.608 683.343L688.316 668.472Z" fill="#85CE26"/>
<path d="M515.079 587.711L522.711 580.663L515.514 617.041L503.576 616.341L515.079 587.711Z" fill="#234D5B"/>
<path d="M532.575 621.827L547.685 625.892L530.637 659.788L505.834 655.709L532.575 621.827Z" fill="#85CE26"/>
<path d="M862.754 980.584L867.378 975.085C871.562 978.709 875.75 980.772 881.185 980.772C885.934 980.772 888.933 978.584 888.933 975.273V975.148C888.933 972.024 887.182 970.337 879.059 968.464C869.751 966.213 864.502 963.465 864.502 955.405V955.28C864.502 947.783 870.751 942.596 879.435 942.596C885.809 942.596 890.87 944.533 895.305 948.095L891.182 953.905C887.245 950.969 883.31 949.407 879.31 949.407C874.813 949.407 872.187 951.719 872.187 954.592V954.717C872.187 958.091 874.187 959.591 882.559 961.589C891.807 963.84 896.617 967.151 896.617 974.399V974.524C896.617 982.708 890.182 987.581 880.998 987.581C874.313 987.581 868.002 985.269 862.754 980.584Z" fill="#797B76"/>
<path d="M903.611 943.221H911.295V986.957H903.611V943.221Z" fill="#797B76"/>
<path d="M920.477 943.221H928.162V979.96H951.154V986.957H920.477V943.221Z" fill="#797B76"/>
<path d="M945.715 943.221H954.212L967.394 976.836L980.515 943.221H988.824L970.644 987.269H963.895L945.715 943.221Z" fill="#797B76"/>
<path d="M993.816 943.221H1026.24V950.093H1001.5V961.465H1023.43V968.339H1001.5V980.084H1026.56V986.957H993.816V943.221Z" fill="#797B76"/>
<path d="M1052.11 964.903C1057.6 964.903 1061.1 962.027 1061.1 957.591V957.467C1061.1 952.781 1057.73 950.219 1052.04 950.219H1040.86V964.903H1052.11ZM1033.17 943.221H1052.67C1058.17 943.221 1062.48 944.847 1065.29 947.595C1067.6 949.969 1068.91 953.217 1068.91 957.028V957.153C1068.91 964.34 1064.6 968.651 1058.48 970.4L1070.29 986.957H1061.23L1050.48 971.712H1040.86V986.957H1033.17V943.221Z" fill="#797B76"/>
<defs>
<radialGradient id="paint0_radial_3256_2149" cx="0" cy="0" r="1" gradientUnits="userSpaceOnUse" gradientTransform="translate(720.001 720) scale(508.776 508.776)">
<stop stop-color="white"/>
<stop offset="0.335672" stop-color="white"/>
<stop offset="1" stop-color="#E9E9E9"/>
</radialGradient>
</defs>
</svg>
