<svg width="16" height="15" viewBox="0 0 16 15" fill="none" xmlns="http://www.w3.org/2000/svg">
<g clip-path="url(#clip0_1_91)">
<path d="M14.3379 2.62328H1.98052C1.37933 2.62328 0.891998 3.11061 0.891998 3.7118V11.0574C0.891998 11.6585 1.37933 12.1459 1.98052 12.1459H14.3379C14.9391 12.1459 15.4264 11.6586 15.4264 11.0574V3.7118C15.4264 3.11061 14.9391 2.62328 14.3379 2.62328Z" fill="#73AF00"/>
<path d="M8.02878 3.95591L2.7471 7.17084C2.58668 7.26846 2.58668 7.5013 2.7471 7.59895L8.02878 10.8139C8.10881 10.8626 8.20933 10.8626 8.28938 10.8139L13.5711 7.59898C13.7315 7.50135 13.7315 7.26852 13.5711 7.17086L8.28938 3.95591C8.20935 3.90723 8.10881 3.90723 8.02878 3.95591Z" fill="#FFE15A"/>
<path d="M8.15906 9.38956C9.26624 9.38956 10.1638 8.49201 10.1638 7.38483C10.1638 6.27765 9.26624 5.3801 8.15906 5.3801C7.05188 5.3801 6.15433 6.27765 6.15433 7.38483C6.15433 8.49201 7.05188 9.38956 8.15906 9.38956Z" fill="#41479B"/>
<path d="M6.43894 6.35909C6.34435 6.51744 6.27131 6.68953 6.22305 6.87226C7.3344 6.78863 8.97841 7.09953 10.0248 8.11487C10.0931 7.94054 10.1382 7.75483 10.1551 7.56068C9.07464 6.65134 7.58092 6.32798 6.43894 6.35909Z" fill="#F5F5F5"/>
<path d="M8.24243 8.06986L8.29585 8.23006L8.46471 8.23137C8.48656 8.23154 8.49563 8.25944 8.47804 8.27242L8.34219 8.37275L8.39314 8.53374C8.39973 8.5546 8.37598 8.57184 8.35822 8.55911L8.22084 8.46092L8.08346 8.55911C8.06567 8.57182 8.04195 8.5546 8.04854 8.53374L8.09949 8.37275L7.96364 8.27242C7.94605 8.25944 7.95512 8.23154 7.97697 8.23137L8.14583 8.23006L8.19925 8.06986C8.20618 8.04909 8.2355 8.04909 8.24243 8.06986Z" fill="#F5F5F5"/>
<path d="M8.89847 8.48292L8.92153 8.55209L8.99447 8.55266C9.00391 8.55272 9.00781 8.56478 9.00023 8.57039L8.94155 8.6137L8.96353 8.68325C8.96635 8.69226 8.95615 8.6997 8.94842 8.6942L8.88909 8.6518L8.82975 8.6942C8.82208 8.6997 8.81182 8.69226 8.81467 8.68325L8.83665 8.6137L8.77797 8.57039C8.77036 8.56481 8.77429 8.55274 8.78373 8.55266L8.85667 8.55209L8.87973 8.48292C8.88278 8.47394 8.89547 8.47394 8.89847 8.48292Z" fill="#F5F5F5"/>
<path d="M7.95918 7.76511L7.98225 7.83428L8.05519 7.83485C8.06462 7.83491 8.06856 7.84697 8.06095 7.85259L8.00227 7.8959L8.02425 7.96544C8.02707 7.97445 8.01686 7.98189 8.00917 7.97639L7.94983 7.93399L7.8905 7.97639C7.88283 7.98189 7.87256 7.97445 7.87538 7.96544L7.89737 7.8959L7.83869 7.85259C7.8311 7.847 7.83501 7.83494 7.84445 7.83485L7.91738 7.83428L7.94045 7.76511C7.9435 7.75621 7.95619 7.75621 7.95918 7.76511Z" fill="#F5F5F5"/>
<path d="M6.68715 7.68189L6.71021 7.75107L6.78315 7.75164C6.79259 7.75169 6.79652 7.76375 6.78891 7.76937L6.73023 7.81268L6.75221 7.88222C6.75504 7.89123 6.74483 7.89868 6.7371 7.89317L6.67777 7.85077L6.61843 7.89317C6.61076 7.89865 6.6005 7.89123 6.60335 7.88222L6.62533 7.81268L6.56665 7.76937C6.55904 7.76378 6.56297 7.75172 6.57241 7.75164L6.64535 7.75107L6.66841 7.68189C6.67149 7.67297 6.68415 7.67297 6.68715 7.68189Z" fill="#F5F5F5"/>
<path d="M7.75131 8.45959L7.77438 8.52876L7.84732 8.52933C7.85675 8.52939 7.86069 8.54145 7.85307 8.54707L7.7944 8.59038L7.81638 8.65992C7.8192 8.66893 7.80899 8.67637 7.8013 8.67087L7.74196 8.62847L7.68263 8.67087C7.67496 8.67637 7.66469 8.66893 7.66751 8.65992L7.6895 8.59038L7.63082 8.54707C7.62323 8.54148 7.62714 8.52942 7.63658 8.52933L7.70951 8.52876L7.73258 8.45959C7.73566 8.45064 7.74835 8.45064 7.75131 8.45959Z" fill="#F5F5F5"/>
<path d="M7.16584 7.63359L7.18471 7.69016L7.24436 7.69064C7.25206 7.6907 7.25528 7.70056 7.2491 7.70515L7.20111 7.74057L7.2191 7.79742C7.22144 7.80478 7.21306 7.81088 7.20675 7.80637L7.15823 7.7717L7.1097 7.80637C7.1034 7.81088 7.09504 7.80478 7.09735 7.79742L7.11534 7.74057L7.06736 7.70515C7.06117 7.70056 7.06433 7.6907 7.07209 7.69064L7.13174 7.69016L7.15061 7.63359C7.15304 7.62629 7.16339 7.62629 7.16584 7.63359Z" fill="#F5F5F5"/>
<path d="M8.94939 6.47114L8.973 6.54191L9.04759 6.54248C9.05726 6.54254 9.06125 6.55489 9.05347 6.56065L8.99348 6.60495L9.01597 6.67609C9.01891 6.6853 9.00839 6.69292 9.00055 6.6873L8.93984 6.6439L8.87914 6.6873C8.87127 6.69295 8.86081 6.68528 8.86371 6.67609L8.88621 6.60495L8.82622 6.56065C8.81844 6.55491 8.82246 6.5426 8.83209 6.54248L8.90668 6.54191L8.93029 6.47114C8.93337 6.46191 8.94634 6.46191 8.94939 6.47114Z" fill="#F5F5F5"/>
<path d="M6.76892 7.28924L6.7878 7.34581L6.84745 7.3463C6.85515 7.34635 6.85837 7.35622 6.85218 7.36081L6.80419 7.39622L6.82219 7.45308C6.82452 7.46043 6.81614 7.46653 6.80984 7.46203L6.76131 7.42736L6.71278 7.46203C6.70648 7.46653 6.69813 7.46043 6.70044 7.45308L6.71843 7.39622L6.67044 7.36081C6.66423 7.35622 6.66742 7.34638 6.67517 7.3463L6.73482 7.34581L6.7537 7.28924C6.75612 7.28191 6.76647 7.28191 6.76892 7.28924Z" fill="#F5F5F5"/>
<path d="M7.05579 8.08308L7.08436 8.16876L7.17468 8.16944C7.18637 8.16953 7.19122 8.18444 7.18181 8.1914L7.10913 8.24506L7.13639 8.33117C7.13993 8.34232 7.12724 8.35156 7.11772 8.34474L7.04421 8.29219L6.9707 8.34474C6.96121 8.35153 6.94849 8.34232 6.95203 8.33117L6.97929 8.24506L6.90661 8.1914C6.8972 8.18444 6.90205 8.16953 6.91374 8.16944L7.00406 8.16876L7.03263 8.08308C7.03643 8.07196 7.05211 8.07196 7.05579 8.08308Z" fill="#F5F5F5"/>
<path d="M9.2638 8.50139L9.28178 8.55526L9.33855 8.55569C9.3459 8.55575 9.34895 8.56512 9.34305 8.56948L9.29739 8.60321L9.31451 8.65733C9.3167 8.66434 9.30876 8.67012 9.30275 8.66585L9.25657 8.63283L9.21036 8.66585C9.20438 8.67012 9.1964 8.66434 9.1986 8.65733L9.21572 8.60321L9.17005 8.56948C9.16416 8.56512 9.16721 8.55575 9.17455 8.55569L9.23133 8.55526L9.24928 8.50139C9.25161 8.49441 9.2615 8.49441 9.2638 8.50139Z" fill="#F5F5F5"/>
<path d="M9.46205 8.09146L9.48512 8.16064L9.55806 8.16121C9.56749 8.16126 9.57143 8.17332 9.56382 8.17894L9.50514 8.22225L9.52712 8.29179C9.52994 8.3008 9.51974 8.30825 9.51204 8.30274L9.4527 8.26035L9.39337 8.30274C9.3857 8.30825 9.37543 8.3008 9.37828 8.29179L9.40027 8.22225L9.34159 8.17894C9.334 8.17335 9.33791 8.16129 9.34735 8.16121L9.42028 8.16064L9.44335 8.09146C9.44637 8.08248 9.45906 8.08248 9.46205 8.09146Z" fill="#F5F5F5"/>
</g>
<defs>
<clipPath id="clip0_1_91">
<rect width="14.5344" height="14.5344" fill="white" transform="translate(0.892029 0.117676)"/>
</clipPath>
</defs>
</svg>
