<svg width="103" height="14" viewBox="0 0 103 14" fill="none" xmlns="http://www.w3.org/2000/svg">
<path d="M27.1044 11.3351C26.5965 11.9795 25.9588 12.3073 25.1914 12.3186C24.4126 12.3186 23.7975 11.9512 23.346 11.2164C23.0526 10.7303 22.9059 10.1933 22.9059 9.60541C22.9059 8.6897 23.2106 7.96618 23.8201 7.43484C24.2151 7.07308 24.6722 6.8922 25.1914 6.8922C26.0604 6.9035 26.6925 7.19743 27.0875 7.77399L28.2048 6.99394C27.5164 6.03301 26.5119 5.5469 25.1914 5.53559C24.1305 5.53559 23.2388 5.97084 22.5165 6.84133C21.8732 7.62137 21.5515 8.54274 21.5515 9.60541C21.5515 10.8716 21.9804 11.906 22.8382 12.7086C23.5266 13.353 24.311 13.6752 25.1914 13.6752C26.4667 13.6639 27.4656 13.1439 28.1879 12.1151L27.1044 11.3351Z" fill="#212247"/>
<path d="M29.6856 9.60541C29.6856 10.8603 30.1202 11.889 30.9892 12.6917C31.689 13.3474 32.496 13.6752 33.4101 13.6752C34.4936 13.6752 35.4022 13.24 36.1358 12.3695C36.8017 11.5894 37.1347 10.6681 37.1347 9.60541C37.1347 8.35055 36.7001 7.32179 35.8311 6.51913C35.1313 5.86344 34.3243 5.53559 33.4101 5.53559C32.3267 5.53559 31.4181 5.97084 30.6845 6.84133C30.0186 7.62137 29.6856 8.54274 29.6856 9.60541ZM31.04 9.60541C31.04 8.71231 31.356 7.98879 31.9881 7.43484C32.4057 7.07308 32.8797 6.8922 33.4101 6.8922C34.1889 6.8922 34.8153 7.24831 35.2893 7.96053C35.6166 8.45795 35.7803 9.00624 35.7803 9.60541C35.7803 10.4985 35.4643 11.222 34.8322 11.776C34.4146 12.1377 33.9406 12.3186 33.4101 12.3186C32.6314 12.3186 32.005 11.9625 31.531 11.2503C31.2037 10.7529 31.04 10.2046 31.04 9.60541Z" fill="#212247"/>
<path d="M45.5915 12.9969V9.04581C45.5915 7.91531 45.1908 7.00525 44.3895 6.31564C43.8026 5.79561 43.1311 5.53559 42.3749 5.53559C41.6864 5.5469 41.0657 5.76169 40.5126 6.17998V5.53559H39.1583V6.2139V9.04581V9.72411V12.9969V13.6752H40.5126V12.9969V9.72411V9.04581C40.5126 8.28837 40.7835 7.69486 41.3253 7.26526C41.6413 7.01655 41.9911 6.8922 42.3749 6.8922C43.0295 6.8922 43.543 7.20309 43.9155 7.82486C44.1299 8.19793 44.2371 8.60491 44.2371 9.04581L44.2541 13.0139L44.271 13.6922H45.6084L45.5915 12.9969Z" fill="#212247"/>
<path d="M53.6676 7.8927C53.6676 7.16917 53.329 6.57 52.6518 6.09519C52.11 5.72213 51.4837 5.53559 50.7726 5.53559C49.7456 5.53559 48.9499 5.87474 48.3855 6.55305C48.047 6.97133 47.8777 7.41788 47.8777 7.8927C47.8889 8.78579 48.4928 9.4754 49.6891 9.96152C49.9713 10.0746 50.3889 10.2159 50.9419 10.3855C51.811 10.6455 52.3245 10.8716 52.4825 11.0638C52.5389 11.1542 52.5671 11.239 52.5671 11.3181C52.5671 11.7477 52.2286 12.0473 51.5514 12.2169C51.2918 12.2847 51.0322 12.3186 50.7726 12.3186C50.0277 12.3186 49.4972 12.1434 49.1812 11.7929C49.0458 11.646 48.9781 11.4877 48.9781 11.3181H47.6237C47.6237 12.019 47.9679 12.6069 48.6564 13.0817C49.2546 13.4774 49.96 13.6752 50.7726 13.6752C51.9238 13.6752 52.8042 13.3191 53.4136 12.6069C53.7522 12.1999 53.9215 11.7703 53.9215 11.3181C53.9328 10.4476 53.3403 9.76933 52.1439 9.28322C51.873 9.17017 51.4554 9.02885 50.8911 8.85928C50.0108 8.58796 49.4916 8.3562 49.3336 8.16402C49.2659 8.07358 49.232 7.98314 49.232 7.8927C49.232 7.47441 49.5142 7.17482 50.0785 6.99394C50.3042 6.92611 50.5356 6.8922 50.7726 6.8922C51.3934 6.8922 51.8448 7.06743 52.127 7.41788C52.2511 7.56485 52.3132 7.72312 52.3132 7.8927H53.6676Z" fill="#212247"/>
<path d="M57.4454 6.8922H58.6643H59.3415V5.53559H58.6643H57.4454V3.772L57.4623 3.0937H56.091L56.0741 3.75505V5.53559H55.617H54.9398V6.8922H55.617H56.0741V11.2842V11.3012C56.0741 12.556 56.6384 13.3135 57.767 13.5735C58.0492 13.6413 58.3483 13.6752 58.6643 13.6752H59.3415V12.3186H58.6643C57.8517 12.296 57.4397 11.9512 57.4284 11.2842L57.4454 6.8922Z" fill="#212247"/>
<path d="M62.3855 6.24781V6.2139V5.53559H61.0311V6.2139V9.52062C61.0311 9.54323 61.0311 9.5715 61.0311 9.60541V10.2837V12.9969V13.6752H62.3855V12.9969V10.2837V9.60541V9.50366C62.3968 8.35055 62.7805 7.56485 63.5367 7.14656C63.8414 6.97699 64.18 6.8922 64.5525 6.8922H65.2297V5.53559H64.5525C63.706 5.5469 62.9837 5.7843 62.3855 6.24781Z" fill="#212247"/>
<path d="M66.4129 6.2139V10.572C66.4129 11.5329 66.8023 12.3243 67.581 12.9461C68.1905 13.4322 68.8959 13.6752 69.6972 13.6752C70.7582 13.6752 71.6103 13.2852 72.2536 12.5052C72.7276 11.9399 72.9646 11.2955 72.9646 10.572L72.9816 6.23085L72.9985 5.55255H71.6272L71.6103 6.2139V10.572C71.6103 11.1938 71.3225 11.6799 70.7469 12.0303C70.4196 12.2225 70.0697 12.3186 69.6972 12.3186C69.0201 12.3186 68.4839 12.0586 68.0889 11.5386C67.8745 11.2446 67.7673 10.9224 67.7673 10.572L67.7842 6.23085L67.8011 5.55255H66.4298L66.4129 6.2139Z" fill="#212247"/>
<path d="M76.8218 5.53559C76.9347 3.95289 77.341 3.15588 78.0407 3.14457H78.7179V1.78797H78.0407C76.8218 1.78797 76.0261 2.56236 75.6537 4.11116C75.5521 4.54075 75.4844 5.01556 75.4505 5.53559H74.9934H74.3162V6.8922H74.9934H75.4336V12.9969V13.6752H76.7879V12.9969V6.8922H78.0407H78.7179V5.53559H78.0407H76.8218Z" fill="#212247"/>
<path d="M80.4076 2.14408V12.9969V13.6752H81.7619V12.9969V2.14408V1.46577H80.4076V2.14408Z" fill="#212247"/>
<path d="M83.0039 9.60541C83.0039 10.8603 83.4384 11.889 84.3074 12.6917C85.0072 13.3474 85.8142 13.6752 86.7284 13.6752C87.8119 13.6752 88.7204 13.24 89.454 12.3695C90.1199 11.5894 90.4529 10.6681 90.4529 9.60541C90.4529 8.35055 90.0184 7.32179 89.1493 6.51913C88.4496 5.86344 87.6426 5.53559 86.7284 5.53559C85.6449 5.53559 84.7363 5.97084 84.0027 6.84133C83.3368 7.62137 83.0039 8.54274 83.0039 9.60541ZM84.3582 9.60541C84.3582 8.71231 84.6743 7.98879 85.3063 7.43484C85.7239 7.07308 86.1979 6.8922 86.7284 6.8922C87.5071 6.8922 88.1335 7.24831 88.6076 7.96053C88.9349 8.45795 89.0985 9.00624 89.0985 9.60541C89.0985 10.4985 88.7825 11.222 88.1505 11.776C87.7329 12.1377 87.2588 12.3186 86.7284 12.3186C85.9496 12.3186 85.3232 11.9625 84.8492 11.2503C84.5219 10.7529 84.3582 10.2046 84.3582 9.60541Z" fill="#212247"/>
<path d="M91.8162 6.40043L93.7123 13.1835L93.8647 13.6752H94.8297L94.999 13.2513L97.2168 7.96053L99.4345 13.2513L99.6038 13.6752H100.569L100.721 13.1835L102.617 6.40043L102.854 5.53559H101.449L101.297 6.02736L99.9255 10.9451L97.8432 5.95953L97.6739 5.53559H96.7597L96.5904 5.95953L94.508 10.9451L93.1367 6.02736L92.9844 5.53559H91.5792L91.8162 6.40043Z" fill="#212247"/>
<path fill-rule="evenodd" clip-rule="evenodd" d="M0.422852 7.70028V7.17094C0.427151 7.16339 0.445891 6.86184 0.450362 6.7899L0.450847 6.7821C0.460926 6.65847 0.472125 6.5371 0.488923 6.4146C0.57291 5.78187 0.771118 5.048 1.0298 4.49619C1.25265 4.02192 1.47437 3.62408 1.77897 3.20601C1.8372 3.12622 1.89543 3.04755 1.95478 2.97C2.01525 2.89021 2.26049 2.60812 2.33328 2.52945L2.639 2.22601C2.97159 1.91583 3.27618 1.66521 3.67372 1.41909C4.03766 1.19432 4.3445 1.0235 4.75211 0.860539C5.27507 0.652627 5.81035 0.514393 6.37363 0.439095C6.39554 0.435896 6.44512 0.430988 6.50119 0.425437C6.6027 0.415387 6.72554 0.403227 6.74429 0.395264H7.81037C7.84015 0.404514 7.93008 0.411511 8.0094 0.417681C8.05535 0.421257 8.09774 0.424555 8.1228 0.427853C8.22247 0.441339 8.32549 0.455953 8.42404 0.473934C8.61665 0.50765 8.81933 0.550357 9.00187 0.60093C9.38821 0.706572 9.66929 0.827946 10.0243 0.986409C10.0447 0.995581 10.0654 1.00479 10.0863 1.01407C10.1857 1.05824 10.289 1.1041 10.3815 1.15611C10.3984 1.16555 10.4146 1.1738 10.4305 1.18195C10.4525 1.19319 10.4741 1.20423 10.4968 1.21792C10.5352 1.2407 10.5743 1.26165 10.6134 1.28268C10.6496 1.30212 10.6859 1.32161 10.7219 1.34267C10.7685 1.37006 10.8108 1.39706 10.8531 1.42413C10.882 1.4426 10.911 1.4611 10.9414 1.47978C11.199 1.63824 11.4173 1.81468 11.648 2.00349C11.6571 2.01138 11.6658 2.01862 11.6744 2.02573C11.6818 2.03179 11.689 2.03775 11.6962 2.04395C11.7046 2.05125 11.7116 2.05856 11.7186 2.06586C11.7256 2.07317 11.7326 2.08047 11.741 2.08778L11.9246 2.25299C11.9512 2.28163 11.9766 2.30587 12.0014 2.32961C12.034 2.36081 12.0658 2.39113 12.0982 2.42943L12.349 2.7059C12.363 2.72051 12.3768 2.73708 12.3905 2.75366C12.4042 2.77024 12.4179 2.78682 12.4319 2.80143C12.5607 2.93854 12.7914 3.24197 12.8944 3.39257C13.2583 3.92527 13.6032 4.68275 13.8071 5.30087C13.8351 5.38403 13.8698 5.48742 13.8888 5.57283L11.6323 5.57396C11.5472 5.32222 11.3938 5.05924 11.2639 4.86369C11.1396 4.67488 11.012 4.49057 10.8608 4.32648L10.7958 4.25231C10.7298 4.1714 10.6043 4.04665 10.5293 3.97922L10.2415 3.72748C10.0567 3.57351 9.83502 3.42291 9.60098 3.28917C8.61217 2.72275 7.32324 2.49124 6.05672 2.83851C5.41281 3.01495 4.73084 3.35323 4.26723 3.74658L3.8137 4.16353C3.80704 4.17154 3.8 4.17757 3.79279 4.18373C3.78786 4.18795 3.78286 4.19223 3.77786 4.19725L3.64908 4.34222C3.64126 4.35146 3.63287 4.36183 3.62438 4.37233C3.6122 4.38739 3.59982 4.40269 3.58861 4.41527C3.2381 4.81649 2.90887 5.40089 2.73418 5.99428C2.55053 6.61801 2.4811 7.22601 2.54717 7.91718C2.6054 8.53642 2.77897 9.11521 3.02422 9.60071C3.23027 10.0075 3.45759 10.3132 3.74203 10.6369L3.80922 10.7032C3.83022 10.7248 3.85073 10.7465 3.87114 10.7682C3.93783 10.8388 4.00358 10.9085 4.08246 10.9696C4.10564 10.9876 4.12002 11.0016 4.13134 11.0126C4.16156 11.042 4.16997 11.0502 4.26611 11.0583C4.68047 11.0939 5.17181 10.6832 5.5151 10.3963C5.5624 10.3568 5.60689 10.3196 5.64798 10.2863L5.65389 10.2814C5.7019 10.2418 5.74523 10.206 5.79579 10.1671C5.81297 10.154 5.83015 10.141 5.84733 10.128C5.88166 10.1021 5.916 10.0761 5.95033 10.0491C6.40274 9.69849 6.95146 9.4355 7.56625 9.55912C8.03244 9.6527 8.40841 9.95055 8.76178 10.2305L8.77118 10.2379C8.84653 10.2978 8.92009 10.3585 8.99343 10.419C9.16643 10.5617 9.3382 10.7035 9.52931 10.8313C9.73424 10.9696 10.0467 11.119 10.3557 11.0235C10.5983 10.9484 10.7746 10.7147 10.907 10.5392C10.9134 10.5308 10.9196 10.5225 10.9257 10.5144C11.078 10.3143 11.2113 10.0986 11.3378 9.84684C11.3712 9.77987 11.4028 9.71007 11.4344 9.64022C11.459 9.5858 11.4837 9.53136 11.5092 9.47821C11.5513 9.39102 11.5765 9.30795 11.5985 9.23528C11.6129 9.18805 11.6259 9.14521 11.6413 9.10847C11.6476 9.09284 11.6472 9.09003 11.6478 9.08975C11.6484 9.08949 11.65 9.09147 11.6592 9.08711H13.8608C13.8429 9.17477 13.657 9.8311 13.6245 9.93C13.517 10.257 13.3815 10.5706 13.2315 10.8774C13.2161 10.9083 13.1991 10.9392 13.1822 10.97C13.1672 10.9974 13.1522 11.0246 13.1385 11.0516C13.0792 11.1674 13.0097 11.2854 12.9437 11.391C12.8709 11.5068 12.8037 11.609 12.732 11.7135C12.6324 11.8585 12.3222 12.2586 12.1967 12.3845L12.134 12.4553C12.0329 12.5717 11.9282 12.6785 11.8208 12.788C11.807 12.8022 11.793 12.8164 11.779 12.8307L11.6727 12.9273C11.6344 12.9587 11.5982 12.9926 11.562 13.0265C11.5282 13.058 11.4944 13.0897 11.4588 13.1195L11.4539 13.1235C11.3563 13.205 11.27 13.277 11.1631 13.3566C10.9067 13.5477 10.6021 13.7297 10.283 13.8151C10.2471 13.8253 10.2124 13.8342 10.1743 13.841C10.1641 13.843 10.1485 13.8452 10.1317 13.8476C10.1025 13.8517 10.07 13.8562 10.0579 13.8612H9.85854C9.84105 13.8536 9.82269 13.8509 9.7983 13.8472C9.73991 13.8385 9.64695 13.8247 9.44868 13.7264C9.32214 13.6645 9.14297 13.5409 9.03658 13.4533C9.02273 13.4421 9.01161 13.4321 9.00066 13.4222C8.98949 13.4122 8.97849 13.4022 8.96491 13.3915L8.85293 13.2937C8.82312 13.2714 8.8079 13.2547 8.79 13.2351C8.77899 13.2231 8.76697 13.2099 8.74991 13.1937C8.73954 13.1837 8.73027 13.1758 8.72128 13.1681C8.70793 13.1566 8.6952 13.1457 8.68048 13.1296C8.67233 13.121 8.66435 13.1117 8.65635 13.1024C8.64344 13.0875 8.63047 13.0724 8.61665 13.0599C8.58529 13.0318 8.57409 13.0206 8.54946 12.9936L8.41956 12.8509C8.40685 12.8381 8.39545 12.8247 8.38394 12.8112C8.37416 12.7997 8.36429 12.7881 8.35349 12.7767L8.21575 12.6418C8.19146 12.6184 8.17333 12.6003 8.15747 12.5844C8.11557 12.5426 8.0895 12.5165 8.00746 12.4497C7.85676 12.3265 7.77725 12.2985 7.69238 12.2686C7.65175 12.2543 7.60989 12.2395 7.55841 12.2137C7.52817 12.1979 7.49682 12.1856 7.46322 12.1743C7.39379 12.1518 7.31428 12.1372 7.23366 12.135C7.01784 12.1289 6.91982 12.183 6.81082 12.2431C6.77842 12.2609 6.74506 12.2793 6.70734 12.2968C6.58436 12.3536 6.52709 12.4021 6.45158 12.4659C6.43151 12.4828 6.41016 12.5009 6.38595 12.5205C6.37687 12.5275 6.3704 12.534 6.36356 12.541C6.35943 12.5452 6.35517 12.5495 6.35011 12.5542L5.91674 12.997C5.90473 13.0102 5.89209 13.0219 5.87931 13.0336C5.86825 13.0438 5.8571 13.0541 5.84619 13.0655L5.60654 13.3015C5.60123 13.3069 5.59676 13.312 5.5923 13.3171C5.58643 13.3238 5.5806 13.3305 5.57295 13.3375C5.42737 13.4735 5.18885 13.6376 5.01751 13.7275C4.82958 13.8262 4.7296 13.8401 4.66862 13.8486C4.64422 13.8519 4.62606 13.8545 4.61102 13.8612H4.42736C4.42624 13.8612 4.22579 13.8297 4.15748 13.8095C3.91896 13.741 3.71179 13.6331 3.51134 13.5038C3.32993 13.387 3.01414 13.1431 2.84057 12.9812L2.72074 12.8666C2.7166 12.8623 2.71259 12.8581 2.70866 12.854C2.686 12.8303 2.66621 12.8096 2.64235 12.7857C2.61023 12.7527 2.56779 12.7109 2.52265 12.6665C2.43563 12.5808 2.3386 12.4852 2.28625 12.4238L1.75657 11.7664C1.60203 11.5517 1.52364 11.4191 1.38591 11.1842C1.20888 10.8855 1.11166 10.657 0.976508 10.3394L0.971569 10.3278C0.885342 10.1244 0.792397 9.84009 0.728566 9.61757C0.720396 9.58981 0.717164 9.56596 0.713921 9.54202C0.711386 9.5233 0.708843 9.50454 0.70393 9.48383C0.693851 9.44112 0.682652 9.39841 0.671454 9.35683C0.586347 9.04328 0.50348 8.61846 0.467646 8.2903C0.457567 8.19477 0.447488 8.09475 0.440769 7.9981C0.439854 7.98249 0.439105 7.95594 0.438228 7.92486C0.435885 7.84185 0.432628 7.72644 0.422852 7.70028Z" fill="url(#paint0_linear_1_36)"/>
<defs>
<linearGradient id="paint0_linear_1_36" x1="1.86453" y1="2.37842" x2="12.4449" y2="11.854" gradientUnits="userSpaceOnUse">
<stop stop-color="#48B9B2"/>
<stop offset="0.23" stop-color="#24B9D5"/>
<stop offset="0.51" stop-color="#46A2DA"/>
<stop offset="0.74" stop-color="#4C5AA5"/>
<stop offset="1" stop-color="#754494"/>
</linearGradient>
</defs>
</svg>
