<svg width="23" height="23" viewBox="0 0 23 23" fill="none" xmlns="http://www.w3.org/2000/svg">
<g clip-path="url(#clip0_1_28)">
<path d="M11.6068 0.866737C5.71955 0.866737 0.946289 5.63933 0.946289 11.5273C0.946289 17.4146 5.71955 22.1878 11.6068 22.1878C17.4941 22.1878 22.2674 17.4146 22.2674 11.5273C22.2674 5.63933 17.4941 0.866737 11.6068 0.866737ZM8.83776 15.7095H6.663V9.16664H8.83776V15.7095ZM7.75038 8.27315H7.73639C7.00614 8.27315 6.53441 7.7701 6.53441 7.14247C6.53441 6.50083 7.0208 6.01245 7.76437 6.01245C8.50795 6.01245 8.96635 6.50083 8.98034 7.14247C8.98034 7.77077 8.50795 8.27315 7.75038 8.27315ZM16.6793 15.7095H14.5045V12.2089C14.5045 11.3294 14.19 10.7297 13.4025 10.7297C12.8021 10.7297 12.4444 11.1342 12.2871 11.5253C12.2298 11.6652 12.2151 11.8604 12.2151 12.0556V15.7095H10.0411C10.0411 15.7095 10.0697 9.78095 10.0411 9.16664H12.2158V10.0934C12.5043 9.64769 13.0214 9.01272 14.176 9.01272C15.6065 9.01272 16.6793 9.94819 16.6793 11.9577V15.7095Z" fill="#455FFC"/>
</g>
<defs>
<clipPath id="clip0_1_28">
<rect width="21.3211" height="21.3211" fill="white" transform="translate(0.946289 0.866737)"/>
</clipPath>
</defs>
</svg>
