<svg width="16" height="15" viewBox="0 0 16 15" fill="none" xmlns="http://www.w3.org/2000/svg">
<g clip-path="url(#clip0_1_41)">
<path d="M0.918457 11.0577C0.918457 11.6589 1.40579 12.1463 2.00698 12.1463H14.3644C14.9655 12.1463 15.4529 11.6589 15.4529 11.0577V10.1415H0.918457V11.0577Z" fill="#C8414B"/>
<path d="M14.3644 2.62328H2.00698C1.40579 2.62328 0.918457 3.11061 0.918457 3.7118V4.62804H15.4529V3.7118C15.4529 3.11061 14.9656 2.62328 14.3644 2.62328Z" fill="#C8414B"/>
<path d="M15.4529 4.62906H0.918457V10.1422H15.4529V4.62906Z" fill="#FFD250"/>
<path d="M7.05786 7.38535L7.27035 6.42923C7.28993 6.34117 7.22291 6.25766 7.13269 6.25766H6.98303C6.89285 6.25766 6.82585 6.3412 6.84538 6.42923L7.05786 7.38535Z" fill="#C8414B"/>
<path d="M7.30851 6.8836H6.80733V9.01352H7.30851V6.8836Z" fill="#F5F5F5"/>
<path d="M7.43422 6.63341H6.68175V6.88425H7.43422V6.63341Z" fill="#FAB446"/>
<path d="M7.43389 7.38525H6.18086V7.63585H7.43389V7.38525Z" fill="#C8414B"/>
<path d="M7.43449 8.38774L6.68202 8.13693V7.8861L7.43449 8.13693V8.38774Z" fill="#C8414B"/>
<path d="M3.29905 7.38535L3.51153 6.42923C3.53111 6.34117 3.46409 6.25766 3.37387 6.25766H3.22422C3.13403 6.25766 3.06703 6.3412 3.08656 6.42923L3.29905 7.38535Z" fill="#C8414B"/>
<path d="M4.17613 6.63341C4.03774 6.63341 3.92552 6.74563 3.92552 6.88402V8.51287C3.92552 8.81733 4.20968 9.38996 5.17849 9.38996C6.14731 9.38996 6.43147 8.81736 6.43147 8.51287V6.88402C6.43147 6.74563 6.31925 6.63341 6.18086 6.63341H4.17613Z" fill="#F5F5F5"/>
<path d="M5.17849 7.88638H3.92552V6.88402C3.92552 6.74563 4.03774 6.63341 4.17613 6.63341H5.17849V7.88638Z" fill="#C8414B"/>
<path d="M5.17847 7.88637H6.43144V8.51285C6.43144 8.85887 6.15097 9.13934 5.80495 9.13934C5.45894 9.13934 5.17847 8.85887 5.17847 8.51285V7.88637Z" fill="#C8414B"/>
<path d="M3.92552 7.88625H5.17849V8.51274C5.17849 8.85876 4.89802 9.13923 4.55201 9.13923C4.20599 9.13923 3.92552 8.85876 3.92552 8.51274V7.88625Z" fill="#FAB446"/>
<path d="M4.92781 9.01113V7.88628H4.6772V9.12662C4.77043 9.10771 4.85465 9.06643 4.92781 9.01113Z" fill="#C8414B"/>
<path d="M4.42674 9.12659V7.88625H4.17613V9.01111C4.24932 9.06641 4.33354 9.10769 4.42674 9.12659Z" fill="#C8414B"/>
<path d="M4.9286 7.38493H4.17613V7.63576H4.9286V7.38493Z" fill="#FFB441"/>
<path d="M4.9286 6.8836H4.17613V7.13443H4.9286V6.8836Z" fill="#FAB446"/>
<path d="M4.80285 7.03276H4.30121V7.48715H4.80285V7.03276Z" fill="#FAB446"/>
<path d="M3.54945 6.8836H3.04826V9.01352H3.54945V6.8836Z" fill="#F5F5F5"/>
<path d="M3.67572 8.88902H2.92325V9.13985H3.67572V8.88902Z" fill="#FAB446"/>
<path d="M3.67564 6.63341H2.92317V6.88425H3.67564V6.63341Z" fill="#FAB446"/>
<path d="M3.80111 9.13862H2.79784V9.38945H3.80111V9.13862Z" fill="#5064AA"/>
<path d="M7.5598 8.88891H6.80733V9.13974H7.5598V8.88891Z" fill="#FAB446"/>
<path d="M7.55999 9.13862H6.55672V9.38945H7.55999V9.13862Z" fill="#5064AA"/>
<path d="M5.93024 6.38275H4.42667V6.63336H5.93024V6.38275Z" fill="#FAB446"/>
<path d="M5.30422 5.63076H5.05339V6.38323H5.30422V5.63076Z" fill="#FFB441"/>
<path d="M4.9283 6.0071C4.72083 6.0071 4.55208 5.83833 4.55208 5.63088C4.55208 5.42341 4.72085 5.25466 4.9283 5.25466C5.13577 5.25466 5.30452 5.42344 5.30452 5.63088C5.30455 5.83833 5.13577 6.0071 4.9283 6.0071ZM4.9283 5.50547C4.85911 5.50547 4.80288 5.56167 4.80288 5.63088C4.80288 5.70007 4.85908 5.7563 4.9283 5.7563C4.99751 5.7563 5.05372 5.7001 5.05372 5.63088C5.05372 5.5617 4.99751 5.50547 4.9283 5.50547Z" fill="#F5F5F5"/>
<path d="M5.42944 6.0071C5.22197 6.0071 5.05322 5.83833 5.05322 5.63088C5.05322 5.42341 5.222 5.25466 5.42944 5.25466C5.63692 5.25466 5.80567 5.42344 5.80567 5.63088C5.80567 5.83833 5.63689 6.0071 5.42944 6.0071ZM5.42944 5.50547C5.36026 5.50547 5.30403 5.56167 5.30403 5.63088C5.30403 5.70007 5.36023 5.7563 5.42944 5.7563C5.49863 5.7563 5.55486 5.7001 5.55486 5.63088C5.55483 5.5617 5.49863 5.50547 5.42944 5.50547Z" fill="#F5F5F5"/>
<path d="M5.93065 6.25776C5.72318 6.25776 5.55443 6.08899 5.55443 5.88154C5.55443 5.67407 5.7232 5.50532 5.93065 5.50532C6.13812 5.50532 6.30687 5.6741 6.30687 5.88154C6.30687 6.08899 6.1381 6.25776 5.93065 6.25776ZM5.93065 5.75613C5.86146 5.75613 5.80523 5.81233 5.80523 5.88154C5.80523 5.95073 5.86143 6.00696 5.93065 6.00696C5.99984 6.00696 6.05607 5.95076 6.05607 5.88154C6.05607 5.81233 5.99984 5.75613 5.93065 5.75613Z" fill="#F5F5F5"/>
<path d="M4.42709 6.25776C4.21962 6.25776 4.05087 6.08899 4.05087 5.88154C4.05087 5.67407 4.21965 5.50532 4.42709 5.50532C4.63457 5.50532 4.80332 5.6741 4.80332 5.88154C4.80334 6.08899 4.63457 6.25776 4.42709 6.25776ZM4.42709 5.75613C4.35791 5.75613 4.30168 5.81233 4.30168 5.88154C4.30168 5.95073 4.35788 6.00696 4.42709 6.00696C4.49631 6.00696 4.55251 5.95073 4.55251 5.88151C4.55251 5.81233 4.49631 5.75613 4.42709 5.75613Z" fill="#F5F5F5"/>
<path d="M5.93076 8.38772V8.51314C5.93076 8.5823 5.8745 8.63856 5.80534 8.63856C5.73618 8.63856 5.67993 8.5823 5.67993 8.51314V8.38772H5.93076ZM6.18156 8.13692H5.42909V8.51314C5.42909 8.72061 5.59787 8.88936 5.80531 8.88936C6.01279 8.88936 6.18154 8.72058 6.18154 8.51314L6.18156 8.13692Z" fill="#FAB446"/>
<path d="M5.8052 7.6361C5.66669 7.6361 5.55437 7.52378 5.55437 7.38527V7.13443C5.55437 6.99592 5.66669 6.8836 5.8052 6.8836C5.94372 6.8836 6.05603 6.99592 6.05603 7.13443V7.38527C6.05603 7.52378 5.94372 7.6361 5.8052 7.6361Z" fill="#FFA0D2"/>
<path d="M5.17883 8.26246C5.38662 8.26246 5.55506 8.09402 5.55506 7.88624C5.55506 7.67846 5.38662 7.51002 5.17883 7.51002C4.97105 7.51002 4.80261 7.67846 4.80261 7.88624C4.80261 8.09402 4.97105 8.26246 5.17883 8.26246Z" fill="#5064AA"/>
<path d="M5.30422 5.12991H5.05339V5.88238H5.30422V5.12991Z" fill="#FAB446"/>
<path d="M4.42674 6.38207L4.17613 6.13147L4.32292 5.98467C4.54983 5.75777 4.8576 5.63028 5.17853 5.63028C5.49945 5.63028 5.8072 5.75777 6.03413 5.98467L6.18092 6.13147L5.93032 6.38207H4.42674Z" fill="#C8414B"/>
<path d="M5.17912 6.2584C5.24863 6.2584 5.30498 6.20205 5.30498 6.13254C5.30498 6.06303 5.24863 6.00669 5.17912 6.00669C5.10962 6.00669 5.05327 6.06303 5.05327 6.13254C5.05327 6.20205 5.10962 6.2584 5.17912 6.2584Z" fill="#FFD250"/>
<path d="M4.67767 6.25823C4.74718 6.25823 4.80353 6.20188 4.80353 6.13237C4.80353 6.06286 4.74718 6.00652 4.67767 6.00652C4.60817 6.00652 4.55182 6.06286 4.55182 6.13237C4.55182 6.20188 4.60817 6.25823 4.67767 6.25823Z" fill="#FFD250"/>
<path d="M5.68033 6.2584C5.74984 6.2584 5.80618 6.20205 5.80618 6.13254C5.80618 6.06303 5.74984 6.00669 5.68033 6.00669C5.61082 6.00669 5.55447 6.06303 5.55447 6.13254C5.55447 6.20205 5.61082 6.2584 5.68033 6.2584Z" fill="#FFD250"/>
<path d="M4.1762 7.38493H2.92317V7.63553H4.1762V7.38493Z" fill="#C8414B"/>
<path d="M2.92325 8.38805L3.67569 8.13725V7.88642L2.92325 8.13725V8.38805Z" fill="#C8414B"/>
</g>
<defs>
<clipPath id="clip0_1_41">
<rect width="14.5344" height="14.5344" fill="white" transform="translate(0.918457 0.117676)"/>
</clipPath>
</defs>
</svg>
