<svg width="16" height="15" viewBox="0 0 16 15" fill="none" xmlns="http://www.w3.org/2000/svg">
<g clip-path="url(#clip0_1_108)">
<path d="M14.3926 2.62375H2.03363C1.43237 2.62375 0.944977 3.11114 0.944977 3.7124V11.0589C0.944977 11.6601 1.43237 12.1475 2.03363 12.1475H14.3926C14.9938 12.1475 15.4812 11.6601 15.4812 11.0589V3.7124C15.4812 3.11114 14.9938 2.62375 14.3926 2.62375Z" fill="#41479B"/>
<path d="M15.4661 3.53246C15.3803 3.01691 14.9325 2.62375 14.3926 2.62375H14.1093L9.46622 5.66577V2.62378H6.95997V5.6658L2.31689 2.62378H2.03363C1.49372 2.62378 1.04585 3.01691 0.960052 3.53249L4.9285 6.13255H0.944977V8.6388H4.9285L0.960052 11.2388C1.04585 11.7543 1.49372 12.1475 2.03363 12.1475H2.31689L6.95997 9.10549V12.1475H9.46622V9.10549L14.1093 12.1475H14.3926C14.9325 12.1475 15.3803 11.7544 15.4661 11.2388L11.4977 8.63874H15.4812V6.13249H11.4977L15.4661 3.53246Z" fill="#F5F5F5"/>
<path d="M8.96497 2.62375H7.46121V6.63373H0.944977V8.1375H7.46121V12.1475H8.96497V8.1375H15.4812V6.63373H8.96497V2.62375Z" fill="#FF4B55"/>
<path d="M1.64893 12.0775L6.94622 8.63893H6.02556L1.20691 11.7668C1.32482 11.9044 1.47634 12.0123 1.64893 12.0775Z" fill="#FF4B55"/>
<path d="M10.7793 8.63893H9.85864L14.9894 11.9693C15.1329 11.8751 15.2527 11.7477 15.3382 11.5981L10.7793 8.63893Z" fill="#FF4B55"/>
<path d="M1.06006 3.22601L5.53818 6.13289H6.45885L1.38446 2.83895C1.24821 2.94037 1.13671 3.07295 1.06006 3.22601Z" fill="#FF4B55"/>
<path d="M10.3869 6.13254L15.2144 2.99888C15.0952 2.86172 14.9425 2.75452 14.7687 2.69055L9.46625 6.13254H10.3869Z" fill="#FF4B55"/>
</g>
<defs>
<clipPath id="clip0_1_108">
<rect width="14.5362" height="14.5362" fill="white" transform="translate(0.944946 0.117676)"/>
</clipPath>
</defs>
</svg>
