<svg width="23" height="22" viewBox="0 0 23 22" fill="none" xmlns="http://www.w3.org/2000/svg">
<g clip-path="url(#clip0_1_21)">
<path d="M14.5525 8.2602L14.5315 8.23916C13.8343 7.54562 12.9129 7.12299 11.9324 7.04696C10.9519 6.97093 9.97635 7.24647 9.18052 7.82423C8.38469 8.40198 7.82056 9.24421 7.58918 10.2C7.35779 11.1559 7.47428 12.1628 7.91776 13.0406L8.10011 13.3997L7.75925 15.0521V15.0731L9.39621 14.6846L9.76933 14.8697C10.5459 15.2552 11.4238 15.3873 12.2794 15.2473C13.135 15.1074 13.9252 14.7026 14.5385 14.0898C15.3086 13.3161 15.742 12.2696 15.7447 11.1779C15.7473 10.0862 15.3189 9.03768 14.5525 8.2602ZM14.387 12.8891C14.1864 13.2047 13.868 13.5905 13.4711 13.6873C12.7697 13.857 11.7023 13.6873 10.3655 12.4515L10.3486 12.436C9.1858 11.3504 8.87721 10.4456 8.94594 9.72883C8.98662 9.32204 9.32607 8.95454 9.61223 8.71327C9.65761 8.67462 9.71144 8.64718 9.76938 8.63317C9.82733 8.61916 9.88775 8.61898 9.94578 8.63263C10.0038 8.64629 10.0578 8.67339 10.1034 8.71177C10.149 8.75014 10.185 8.79871 10.2084 8.85354L10.639 9.83543C10.6671 9.8981 10.6777 9.96723 10.6695 10.0354C10.6614 10.1036 10.6348 10.1683 10.5927 10.2226L10.3739 10.5031C10.3284 10.5614 10.3013 10.6318 10.2961 10.7055C10.2908 10.7792 10.3077 10.8528 10.3444 10.9169C10.5524 11.2228 10.8011 11.4989 11.0837 11.7375C11.387 12.0311 11.7321 12.2783 12.1076 12.4711C12.176 12.4989 12.2512 12.5056 12.3234 12.4903C12.3956 12.4751 12.4617 12.4386 12.513 12.3855L12.7641 12.1317C12.811 12.0779 12.8719 12.0384 12.9401 12.0176C13.0083 11.9968 13.081 11.9955 13.1498 12.0138L14.1738 12.3084C14.2307 12.3251 14.283 12.3547 14.3265 12.395C14.37 12.4353 14.4036 12.4852 14.4245 12.5407C14.4455 12.5962 14.4532 12.6558 14.4472 12.7148C14.4412 12.7738 14.4215 12.8306 14.3898 12.8807L14.387 12.8891Z" fill="#455FFC"/>
<path d="M11.6068 0.545654C9.49838 0.545654 7.43727 1.17088 5.68416 2.34228C3.93104 3.51368 2.56465 5.17862 1.75778 7.12658C0.950908 9.07454 0.739794 11.218 1.15113 13.286C1.56247 15.3539 2.57779 17.2534 4.06869 18.7443C5.5596 20.2352 7.45912 21.2506 9.52707 21.6619C11.595 22.0732 13.7385 21.8621 15.6864 21.0553C17.6344 20.2484 19.2994 18.882 20.4708 17.1289C21.6421 15.3758 22.2674 13.3147 22.2674 11.2062C22.2674 8.37885 21.1442 5.66729 19.145 3.66806C17.1457 1.66882 14.4342 0.545654 11.6068 0.545654ZM16.8908 11.331C16.862 12.2164 16.6113 13.0804 16.1618 13.8436C15.7122 14.6069 15.0781 15.245 14.3178 15.6995C13.5574 16.154 12.6951 16.4102 11.8099 16.4447C10.9248 16.4791 10.0451 16.2908 9.2517 15.8968L6.58656 16.5309C6.54627 16.5401 6.50413 16.537 6.46561 16.522C6.42709 16.507 6.39397 16.4808 6.37055 16.4467C6.35454 16.4239 6.34341 16.3981 6.33786 16.3708C6.3323 16.3435 6.33245 16.3154 6.33828 16.2882L6.89936 13.5641C6.53261 12.8455 6.33514 12.0525 6.3221 11.2458C6.30905 10.4391 6.48076 9.64007 6.82408 8.90995C7.16741 8.17983 7.67324 7.53795 8.30286 7.03345C8.93249 6.52894 9.6692 6.1752 10.4566 5.99929C11.244 5.82337 12.0612 5.82996 12.8457 6.01855C13.6301 6.20714 14.361 6.57272 14.9824 7.08731C15.6039 7.60191 16.0993 8.25186 16.4308 8.98742C16.7623 9.72298 16.9211 10.5246 16.895 11.331H16.8908Z" fill="#455FFC"/>
</g>
<defs>
<clipPath id="clip0_1_21">
<rect width="21.3211" height="21.3211" fill="white" transform="translate(0.946289 0.545654)"/>
</clipPath>
</defs>
</svg>
